%TF.GenerationSoftware,KiCad,Pcbnew,7.0.1-0*%
%TF.CreationDate,2023-04-25T00:20:10+03:00*%
%TF.ProjectId,power switch with delay,706f7765-7220-4737-9769-746368207769,rev?*%
%TF.SameCoordinates,Original*%
%TF.FileFunction,Legend,Top*%
%TF.FilePolarity,Positive*%
%FSLAX46Y46*%
G04 Gerber Fmt 4.6, Leading zero omitted, Abs format (unit mm)*
G04 Created by KiCad (PCBNEW 7.0.1-0) date 2023-04-25 00:20:10*
%MOMM*%
%LPD*%
G01*
G04 APERTURE LIST*
%ADD10C,0.150000*%
%ADD11C,0.010000*%
%ADD12C,0.120000*%
G04 APERTURE END LIST*
D10*
%TO.C,R5*%
X128612619Y-98079166D02*
X128136428Y-98412499D01*
X128612619Y-98650594D02*
X127612619Y-98650594D01*
X127612619Y-98650594D02*
X127612619Y-98269642D01*
X127612619Y-98269642D02*
X127660238Y-98174404D01*
X127660238Y-98174404D02*
X127707857Y-98126785D01*
X127707857Y-98126785D02*
X127803095Y-98079166D01*
X127803095Y-98079166D02*
X127945952Y-98079166D01*
X127945952Y-98079166D02*
X128041190Y-98126785D01*
X128041190Y-98126785D02*
X128088809Y-98174404D01*
X128088809Y-98174404D02*
X128136428Y-98269642D01*
X128136428Y-98269642D02*
X128136428Y-98650594D01*
X127612619Y-97174404D02*
X127612619Y-97650594D01*
X127612619Y-97650594D02*
X128088809Y-97698213D01*
X128088809Y-97698213D02*
X128041190Y-97650594D01*
X128041190Y-97650594D02*
X127993571Y-97555356D01*
X127993571Y-97555356D02*
X127993571Y-97317261D01*
X127993571Y-97317261D02*
X128041190Y-97222023D01*
X128041190Y-97222023D02*
X128088809Y-97174404D01*
X128088809Y-97174404D02*
X128184047Y-97126785D01*
X128184047Y-97126785D02*
X128422142Y-97126785D01*
X128422142Y-97126785D02*
X128517380Y-97174404D01*
X128517380Y-97174404D02*
X128565000Y-97222023D01*
X128565000Y-97222023D02*
X128612619Y-97317261D01*
X128612619Y-97317261D02*
X128612619Y-97555356D01*
X128612619Y-97555356D02*
X128565000Y-97650594D01*
X128565000Y-97650594D02*
X128517380Y-97698213D01*
%TO.C,R4*%
X130412619Y-98166666D02*
X129936428Y-98499999D01*
X130412619Y-98738094D02*
X129412619Y-98738094D01*
X129412619Y-98738094D02*
X129412619Y-98357142D01*
X129412619Y-98357142D02*
X129460238Y-98261904D01*
X129460238Y-98261904D02*
X129507857Y-98214285D01*
X129507857Y-98214285D02*
X129603095Y-98166666D01*
X129603095Y-98166666D02*
X129745952Y-98166666D01*
X129745952Y-98166666D02*
X129841190Y-98214285D01*
X129841190Y-98214285D02*
X129888809Y-98261904D01*
X129888809Y-98261904D02*
X129936428Y-98357142D01*
X129936428Y-98357142D02*
X129936428Y-98738094D01*
X129745952Y-97309523D02*
X130412619Y-97309523D01*
X129365000Y-97547618D02*
X130079285Y-97785713D01*
X130079285Y-97785713D02*
X130079285Y-97166666D01*
%TO.C,R3*%
X121812619Y-101366666D02*
X121336428Y-101699999D01*
X121812619Y-101938094D02*
X120812619Y-101938094D01*
X120812619Y-101938094D02*
X120812619Y-101557142D01*
X120812619Y-101557142D02*
X120860238Y-101461904D01*
X120860238Y-101461904D02*
X120907857Y-101414285D01*
X120907857Y-101414285D02*
X121003095Y-101366666D01*
X121003095Y-101366666D02*
X121145952Y-101366666D01*
X121145952Y-101366666D02*
X121241190Y-101414285D01*
X121241190Y-101414285D02*
X121288809Y-101461904D01*
X121288809Y-101461904D02*
X121336428Y-101557142D01*
X121336428Y-101557142D02*
X121336428Y-101938094D01*
X120812619Y-101033332D02*
X120812619Y-100414285D01*
X120812619Y-100414285D02*
X121193571Y-100747618D01*
X121193571Y-100747618D02*
X121193571Y-100604761D01*
X121193571Y-100604761D02*
X121241190Y-100509523D01*
X121241190Y-100509523D02*
X121288809Y-100461904D01*
X121288809Y-100461904D02*
X121384047Y-100414285D01*
X121384047Y-100414285D02*
X121622142Y-100414285D01*
X121622142Y-100414285D02*
X121717380Y-100461904D01*
X121717380Y-100461904D02*
X121765000Y-100509523D01*
X121765000Y-100509523D02*
X121812619Y-100604761D01*
X121812619Y-100604761D02*
X121812619Y-100890475D01*
X121812619Y-100890475D02*
X121765000Y-100985713D01*
X121765000Y-100985713D02*
X121717380Y-101033332D01*
%TO.C,R2*%
X117725119Y-93454166D02*
X117248928Y-93787499D01*
X117725119Y-94025594D02*
X116725119Y-94025594D01*
X116725119Y-94025594D02*
X116725119Y-93644642D01*
X116725119Y-93644642D02*
X116772738Y-93549404D01*
X116772738Y-93549404D02*
X116820357Y-93501785D01*
X116820357Y-93501785D02*
X116915595Y-93454166D01*
X116915595Y-93454166D02*
X117058452Y-93454166D01*
X117058452Y-93454166D02*
X117153690Y-93501785D01*
X117153690Y-93501785D02*
X117201309Y-93549404D01*
X117201309Y-93549404D02*
X117248928Y-93644642D01*
X117248928Y-93644642D02*
X117248928Y-94025594D01*
X116820357Y-93073213D02*
X116772738Y-93025594D01*
X116772738Y-93025594D02*
X116725119Y-92930356D01*
X116725119Y-92930356D02*
X116725119Y-92692261D01*
X116725119Y-92692261D02*
X116772738Y-92597023D01*
X116772738Y-92597023D02*
X116820357Y-92549404D01*
X116820357Y-92549404D02*
X116915595Y-92501785D01*
X116915595Y-92501785D02*
X117010833Y-92501785D01*
X117010833Y-92501785D02*
X117153690Y-92549404D01*
X117153690Y-92549404D02*
X117725119Y-93120832D01*
X117725119Y-93120832D02*
X117725119Y-92501785D01*
%TO.C,R1*%
X117812619Y-97566666D02*
X117336428Y-97899999D01*
X117812619Y-98138094D02*
X116812619Y-98138094D01*
X116812619Y-98138094D02*
X116812619Y-97757142D01*
X116812619Y-97757142D02*
X116860238Y-97661904D01*
X116860238Y-97661904D02*
X116907857Y-97614285D01*
X116907857Y-97614285D02*
X117003095Y-97566666D01*
X117003095Y-97566666D02*
X117145952Y-97566666D01*
X117145952Y-97566666D02*
X117241190Y-97614285D01*
X117241190Y-97614285D02*
X117288809Y-97661904D01*
X117288809Y-97661904D02*
X117336428Y-97757142D01*
X117336428Y-97757142D02*
X117336428Y-98138094D01*
X117812619Y-96614285D02*
X117812619Y-97185713D01*
X117812619Y-96899999D02*
X116812619Y-96899999D01*
X116812619Y-96899999D02*
X116955476Y-96995237D01*
X116955476Y-96995237D02*
X117050714Y-97090475D01*
X117050714Y-97090475D02*
X117098333Y-97185713D01*
%TO.C,Q1*%
X124504761Y-91657857D02*
X124409523Y-91610238D01*
X124409523Y-91610238D02*
X124314285Y-91515000D01*
X124314285Y-91515000D02*
X124171428Y-91372142D01*
X124171428Y-91372142D02*
X124076190Y-91324523D01*
X124076190Y-91324523D02*
X123980952Y-91324523D01*
X124028571Y-91562619D02*
X123933333Y-91515000D01*
X123933333Y-91515000D02*
X123838095Y-91419761D01*
X123838095Y-91419761D02*
X123790476Y-91229285D01*
X123790476Y-91229285D02*
X123790476Y-90895952D01*
X123790476Y-90895952D02*
X123838095Y-90705476D01*
X123838095Y-90705476D02*
X123933333Y-90610238D01*
X123933333Y-90610238D02*
X124028571Y-90562619D01*
X124028571Y-90562619D02*
X124219047Y-90562619D01*
X124219047Y-90562619D02*
X124314285Y-90610238D01*
X124314285Y-90610238D02*
X124409523Y-90705476D01*
X124409523Y-90705476D02*
X124457142Y-90895952D01*
X124457142Y-90895952D02*
X124457142Y-91229285D01*
X124457142Y-91229285D02*
X124409523Y-91419761D01*
X124409523Y-91419761D02*
X124314285Y-91515000D01*
X124314285Y-91515000D02*
X124219047Y-91562619D01*
X124219047Y-91562619D02*
X124028571Y-91562619D01*
X125409523Y-91562619D02*
X124838095Y-91562619D01*
X125123809Y-91562619D02*
X125123809Y-90562619D01*
X125123809Y-90562619D02*
X125028571Y-90705476D01*
X125028571Y-90705476D02*
X124933333Y-90800714D01*
X124933333Y-90800714D02*
X124838095Y-90848333D01*
%TO.C,JP1*%
X118566666Y-99062619D02*
X118566666Y-99776904D01*
X118566666Y-99776904D02*
X118519047Y-99919761D01*
X118519047Y-99919761D02*
X118423809Y-100015000D01*
X118423809Y-100015000D02*
X118280952Y-100062619D01*
X118280952Y-100062619D02*
X118185714Y-100062619D01*
X119042857Y-100062619D02*
X119042857Y-99062619D01*
X119042857Y-99062619D02*
X119423809Y-99062619D01*
X119423809Y-99062619D02*
X119519047Y-99110238D01*
X119519047Y-99110238D02*
X119566666Y-99157857D01*
X119566666Y-99157857D02*
X119614285Y-99253095D01*
X119614285Y-99253095D02*
X119614285Y-99395952D01*
X119614285Y-99395952D02*
X119566666Y-99491190D01*
X119566666Y-99491190D02*
X119519047Y-99538809D01*
X119519047Y-99538809D02*
X119423809Y-99586428D01*
X119423809Y-99586428D02*
X119042857Y-99586428D01*
X120566666Y-100062619D02*
X119995238Y-100062619D01*
X120280952Y-100062619D02*
X120280952Y-99062619D01*
X120280952Y-99062619D02*
X120185714Y-99205476D01*
X120185714Y-99205476D02*
X120090476Y-99300714D01*
X120090476Y-99300714D02*
X119995238Y-99348333D01*
X117085714Y-101862619D02*
X116514286Y-101862619D01*
X116800000Y-101862619D02*
X116800000Y-100862619D01*
X116800000Y-100862619D02*
X116704762Y-101005476D01*
X116704762Y-101005476D02*
X116609524Y-101100714D01*
X116609524Y-101100714D02*
X116514286Y-101148333D01*
X121666667Y-100862619D02*
X122285714Y-100862619D01*
X122285714Y-100862619D02*
X121952381Y-101243571D01*
X121952381Y-101243571D02*
X122095238Y-101243571D01*
X122095238Y-101243571D02*
X122190476Y-101291190D01*
X122190476Y-101291190D02*
X122238095Y-101338809D01*
X122238095Y-101338809D02*
X122285714Y-101434047D01*
X122285714Y-101434047D02*
X122285714Y-101672142D01*
X122285714Y-101672142D02*
X122238095Y-101767380D01*
X122238095Y-101767380D02*
X122190476Y-101815000D01*
X122190476Y-101815000D02*
X122095238Y-101862619D01*
X122095238Y-101862619D02*
X121809524Y-101862619D01*
X121809524Y-101862619D02*
X121714286Y-101815000D01*
X121714286Y-101815000D02*
X121666667Y-101767380D01*
%TO.C,J1*%
X114866666Y-87732619D02*
X114866666Y-88446904D01*
X114866666Y-88446904D02*
X114819047Y-88589761D01*
X114819047Y-88589761D02*
X114723809Y-88685000D01*
X114723809Y-88685000D02*
X114580952Y-88732619D01*
X114580952Y-88732619D02*
X114485714Y-88732619D01*
X115866666Y-88732619D02*
X115295238Y-88732619D01*
X115580952Y-88732619D02*
X115580952Y-87732619D01*
X115580952Y-87732619D02*
X115485714Y-87875476D01*
X115485714Y-87875476D02*
X115390476Y-87970714D01*
X115390476Y-87970714D02*
X115295238Y-88018333D01*
%TO.C,D2*%
X125461905Y-103312619D02*
X125461905Y-102312619D01*
X125461905Y-102312619D02*
X125700000Y-102312619D01*
X125700000Y-102312619D02*
X125842857Y-102360238D01*
X125842857Y-102360238D02*
X125938095Y-102455476D01*
X125938095Y-102455476D02*
X125985714Y-102550714D01*
X125985714Y-102550714D02*
X126033333Y-102741190D01*
X126033333Y-102741190D02*
X126033333Y-102884047D01*
X126033333Y-102884047D02*
X125985714Y-103074523D01*
X125985714Y-103074523D02*
X125938095Y-103169761D01*
X125938095Y-103169761D02*
X125842857Y-103265000D01*
X125842857Y-103265000D02*
X125700000Y-103312619D01*
X125700000Y-103312619D02*
X125461905Y-103312619D01*
X126414286Y-102407857D02*
X126461905Y-102360238D01*
X126461905Y-102360238D02*
X126557143Y-102312619D01*
X126557143Y-102312619D02*
X126795238Y-102312619D01*
X126795238Y-102312619D02*
X126890476Y-102360238D01*
X126890476Y-102360238D02*
X126938095Y-102407857D01*
X126938095Y-102407857D02*
X126985714Y-102503095D01*
X126985714Y-102503095D02*
X126985714Y-102598333D01*
X126985714Y-102598333D02*
X126938095Y-102741190D01*
X126938095Y-102741190D02*
X126366667Y-103312619D01*
X126366667Y-103312619D02*
X126985714Y-103312619D01*
%TO.C,D1*%
X129861905Y-96862619D02*
X129861905Y-95862619D01*
X129861905Y-95862619D02*
X130100000Y-95862619D01*
X130100000Y-95862619D02*
X130242857Y-95910238D01*
X130242857Y-95910238D02*
X130338095Y-96005476D01*
X130338095Y-96005476D02*
X130385714Y-96100714D01*
X130385714Y-96100714D02*
X130433333Y-96291190D01*
X130433333Y-96291190D02*
X130433333Y-96434047D01*
X130433333Y-96434047D02*
X130385714Y-96624523D01*
X130385714Y-96624523D02*
X130338095Y-96719761D01*
X130338095Y-96719761D02*
X130242857Y-96815000D01*
X130242857Y-96815000D02*
X130100000Y-96862619D01*
X130100000Y-96862619D02*
X129861905Y-96862619D01*
X131385714Y-96862619D02*
X130814286Y-96862619D01*
X131100000Y-96862619D02*
X131100000Y-95862619D01*
X131100000Y-95862619D02*
X131004762Y-96005476D01*
X131004762Y-96005476D02*
X130909524Y-96100714D01*
X130909524Y-96100714D02*
X130814286Y-96148333D01*
%TO.C,C3*%
X130233333Y-100387380D02*
X130185714Y-100435000D01*
X130185714Y-100435000D02*
X130042857Y-100482619D01*
X130042857Y-100482619D02*
X129947619Y-100482619D01*
X129947619Y-100482619D02*
X129804762Y-100435000D01*
X129804762Y-100435000D02*
X129709524Y-100339761D01*
X129709524Y-100339761D02*
X129661905Y-100244523D01*
X129661905Y-100244523D02*
X129614286Y-100054047D01*
X129614286Y-100054047D02*
X129614286Y-99911190D01*
X129614286Y-99911190D02*
X129661905Y-99720714D01*
X129661905Y-99720714D02*
X129709524Y-99625476D01*
X129709524Y-99625476D02*
X129804762Y-99530238D01*
X129804762Y-99530238D02*
X129947619Y-99482619D01*
X129947619Y-99482619D02*
X130042857Y-99482619D01*
X130042857Y-99482619D02*
X130185714Y-99530238D01*
X130185714Y-99530238D02*
X130233333Y-99577857D01*
X130566667Y-99482619D02*
X131185714Y-99482619D01*
X131185714Y-99482619D02*
X130852381Y-99863571D01*
X130852381Y-99863571D02*
X130995238Y-99863571D01*
X130995238Y-99863571D02*
X131090476Y-99911190D01*
X131090476Y-99911190D02*
X131138095Y-99958809D01*
X131138095Y-99958809D02*
X131185714Y-100054047D01*
X131185714Y-100054047D02*
X131185714Y-100292142D01*
X131185714Y-100292142D02*
X131138095Y-100387380D01*
X131138095Y-100387380D02*
X131090476Y-100435000D01*
X131090476Y-100435000D02*
X130995238Y-100482619D01*
X130995238Y-100482619D02*
X130709524Y-100482619D01*
X130709524Y-100482619D02*
X130614286Y-100435000D01*
X130614286Y-100435000D02*
X130566667Y-100387380D01*
%TO.C,C2*%
X120408333Y-88587380D02*
X120360714Y-88635000D01*
X120360714Y-88635000D02*
X120217857Y-88682619D01*
X120217857Y-88682619D02*
X120122619Y-88682619D01*
X120122619Y-88682619D02*
X119979762Y-88635000D01*
X119979762Y-88635000D02*
X119884524Y-88539761D01*
X119884524Y-88539761D02*
X119836905Y-88444523D01*
X119836905Y-88444523D02*
X119789286Y-88254047D01*
X119789286Y-88254047D02*
X119789286Y-88111190D01*
X119789286Y-88111190D02*
X119836905Y-87920714D01*
X119836905Y-87920714D02*
X119884524Y-87825476D01*
X119884524Y-87825476D02*
X119979762Y-87730238D01*
X119979762Y-87730238D02*
X120122619Y-87682619D01*
X120122619Y-87682619D02*
X120217857Y-87682619D01*
X120217857Y-87682619D02*
X120360714Y-87730238D01*
X120360714Y-87730238D02*
X120408333Y-87777857D01*
X120789286Y-87777857D02*
X120836905Y-87730238D01*
X120836905Y-87730238D02*
X120932143Y-87682619D01*
X120932143Y-87682619D02*
X121170238Y-87682619D01*
X121170238Y-87682619D02*
X121265476Y-87730238D01*
X121265476Y-87730238D02*
X121313095Y-87777857D01*
X121313095Y-87777857D02*
X121360714Y-87873095D01*
X121360714Y-87873095D02*
X121360714Y-87968333D01*
X121360714Y-87968333D02*
X121313095Y-88111190D01*
X121313095Y-88111190D02*
X120741667Y-88682619D01*
X120741667Y-88682619D02*
X121360714Y-88682619D01*
%TO.C,C1*%
X126008333Y-88587380D02*
X125960714Y-88635000D01*
X125960714Y-88635000D02*
X125817857Y-88682619D01*
X125817857Y-88682619D02*
X125722619Y-88682619D01*
X125722619Y-88682619D02*
X125579762Y-88635000D01*
X125579762Y-88635000D02*
X125484524Y-88539761D01*
X125484524Y-88539761D02*
X125436905Y-88444523D01*
X125436905Y-88444523D02*
X125389286Y-88254047D01*
X125389286Y-88254047D02*
X125389286Y-88111190D01*
X125389286Y-88111190D02*
X125436905Y-87920714D01*
X125436905Y-87920714D02*
X125484524Y-87825476D01*
X125484524Y-87825476D02*
X125579762Y-87730238D01*
X125579762Y-87730238D02*
X125722619Y-87682619D01*
X125722619Y-87682619D02*
X125817857Y-87682619D01*
X125817857Y-87682619D02*
X125960714Y-87730238D01*
X125960714Y-87730238D02*
X126008333Y-87777857D01*
X126960714Y-88682619D02*
X126389286Y-88682619D01*
X126675000Y-88682619D02*
X126675000Y-87682619D01*
X126675000Y-87682619D02*
X126579762Y-87825476D01*
X126579762Y-87825476D02*
X126484524Y-87920714D01*
X126484524Y-87920714D02*
X126389286Y-87968333D01*
%TO.C,REF\u002A\u002A*%
D11*
X127747822Y-101417822D02*
X124227029Y-101417822D01*
X124227029Y-100550198D01*
X127747822Y-100550198D01*
X127747822Y-101417822D01*
G36*
X127747822Y-101417822D02*
G01*
X124227029Y-101417822D01*
X124227029Y-100550198D01*
X127747822Y-100550198D01*
X127747822Y-101417822D01*
G37*
X125012520Y-96152334D02*
X125151384Y-96152334D01*
X125158692Y-96159462D01*
X125184007Y-96161662D01*
X125201092Y-96161782D01*
X125258119Y-96161782D01*
X125470779Y-96161782D01*
X126885302Y-96161782D01*
X126837458Y-96112786D01*
X126763150Y-96052324D01*
X126671184Y-96005691D01*
X126560002Y-95972249D01*
X126449529Y-95953753D01*
X126377227Y-95945122D01*
X126377227Y-96036040D01*
X125798812Y-96036040D01*
X125798812Y-95932893D01*
X125713935Y-95941496D01*
X125654632Y-95948756D01*
X125591449Y-95958379D01*
X125553614Y-95965252D01*
X125478168Y-95980407D01*
X125474474Y-96071095D01*
X125470779Y-96161782D01*
X125258119Y-96161782D01*
X125258119Y-96111485D01*
X125256456Y-96079976D01*
X125252303Y-96062463D01*
X125250629Y-96061188D01*
X125232013Y-96069254D01*
X125204817Y-96088820D01*
X125177552Y-96112944D01*
X125158733Y-96134682D01*
X125157057Y-96137508D01*
X125151384Y-96152334D01*
X125012520Y-96152334D01*
X125020338Y-96143081D01*
X125024558Y-96129604D01*
X125041781Y-96094627D01*
X125074862Y-96052579D01*
X125118107Y-96009356D01*
X125165826Y-95970854D01*
X125197170Y-95950801D01*
X125232877Y-95928851D01*
X125251181Y-95910411D01*
X125257612Y-95888668D01*
X125258106Y-95875718D01*
X125258106Y-95872575D01*
X125899406Y-95872575D01*
X125899406Y-95935446D01*
X126276633Y-95935446D01*
X126276633Y-95872575D01*
X125899406Y-95872575D01*
X125258106Y-95872575D01*
X125258119Y-95834852D01*
X125363952Y-95834852D01*
X125412645Y-95836029D01*
X125450595Y-95839165D01*
X125471692Y-95843671D01*
X125473977Y-95845495D01*
X125487359Y-95848295D01*
X125519926Y-95847148D01*
X125566084Y-95842393D01*
X125597624Y-95838003D01*
X125654812Y-95829378D01*
X125707114Y-95821591D01*
X125746418Y-95815847D01*
X125757945Y-95814215D01*
X125788063Y-95804888D01*
X125798812Y-95790272D01*
X125802080Y-95784320D01*
X125813770Y-95779778D01*
X125836712Y-95776470D01*
X125873735Y-95774215D01*
X125927668Y-95772834D01*
X126001340Y-95772150D01*
X126088020Y-95771980D01*
X126180529Y-95772077D01*
X126250906Y-95772530D01*
X126302164Y-95773590D01*
X126337320Y-95775503D01*
X126359389Y-95778519D01*
X126371385Y-95782885D01*
X126376324Y-95788849D01*
X126377227Y-95795784D01*
X126384921Y-95817795D01*
X126410121Y-95830321D01*
X126456009Y-95834788D01*
X126464264Y-95834852D01*
X126541973Y-95842868D01*
X126630233Y-95864936D01*
X126721085Y-95898084D01*
X126806570Y-95939339D01*
X126878726Y-95985731D01*
X126888072Y-95993082D01*
X126918533Y-96016998D01*
X126936572Y-96026576D01*
X126949169Y-96023480D01*
X126962100Y-96010704D01*
X127000293Y-95985678D01*
X127049998Y-95976071D01*
X127103524Y-95981067D01*
X127153178Y-95999851D01*
X127191267Y-96031606D01*
X127194025Y-96035297D01*
X127222526Y-96094575D01*
X127227828Y-96155934D01*
X127210518Y-96214427D01*
X127171180Y-96265104D01*
X127166370Y-96269289D01*
X127138440Y-96289167D01*
X127110102Y-96297921D01*
X127070263Y-96298553D01*
X127060311Y-96297992D01*
X127021332Y-96296562D01*
X127001254Y-96299839D01*
X126993985Y-96309728D01*
X126993240Y-96318961D01*
X126991716Y-96345744D01*
X126987935Y-96386025D01*
X126985218Y-96410124D01*
X126981277Y-96448401D01*
X126982916Y-96467996D01*
X126992421Y-96475158D01*
X127009351Y-96476139D01*
X127019392Y-96472901D01*
X127035590Y-96462420D01*
X127059145Y-96443548D01*
X127091257Y-96415135D01*
X127133128Y-96376035D01*
X127185957Y-96325097D01*
X127250945Y-96261173D01*
X127329291Y-96183114D01*
X127422197Y-96089772D01*
X127530863Y-95979998D01*
X127583231Y-95926952D01*
X128125049Y-95377767D01*
X128124430Y-95464848D01*
X128123811Y-95551931D01*
X127672086Y-96010891D01*
X127220361Y-96469852D01*
X127220032Y-96680471D01*
X127219703Y-96891089D01*
X126944610Y-96891089D01*
X126937522Y-96944530D01*
X126934838Y-96968888D01*
X126930313Y-97014759D01*
X126924191Y-97079405D01*
X126916712Y-97160091D01*
X126908119Y-97254081D01*
X126898654Y-97358637D01*
X126888558Y-97471025D01*
X126878074Y-97588507D01*
X126867444Y-97708348D01*
X126856909Y-97827811D01*
X126846713Y-97944159D01*
X126837095Y-98054657D01*
X126828300Y-98156569D01*
X126820568Y-98247158D01*
X126814142Y-98323687D01*
X126809263Y-98383421D01*
X126806175Y-98423624D01*
X126805117Y-98441559D01*
X126805118Y-98441644D01*
X126812827Y-98456035D01*
X126835981Y-98485748D01*
X126874895Y-98531131D01*
X126929884Y-98592529D01*
X127001264Y-98670288D01*
X127089349Y-98764754D01*
X127194454Y-98876272D01*
X127316895Y-99005188D01*
X127351310Y-99041287D01*
X127897137Y-99613416D01*
X127808881Y-99701436D01*
X127737485Y-99623758D01*
X127711366Y-99595686D01*
X127670566Y-99552274D01*
X127617777Y-99496366D01*
X127555691Y-99430808D01*
X127487000Y-99358441D01*
X127414396Y-99282112D01*
X127370960Y-99236524D01*
X127289416Y-99151119D01*
X127223504Y-99082710D01*
X127171544Y-99030053D01*
X127131855Y-98991905D01*
X127102757Y-98967020D01*
X127082569Y-98954156D01*
X127069610Y-98952068D01*
X127062200Y-98959513D01*
X127058658Y-98975246D01*
X127057303Y-98998023D01*
X127057121Y-99004239D01*
X127047703Y-99047061D01*
X127024497Y-99098819D01*
X126992136Y-99151328D01*
X126955252Y-99196403D01*
X126940493Y-99210328D01*
X126864767Y-99259047D01*
X126776308Y-99286306D01*
X126698100Y-99292773D01*
X126609468Y-99280576D01*
X126527612Y-99244813D01*
X126455164Y-99186722D01*
X126441797Y-99172262D01*
X126392918Y-99116733D01*
X125547326Y-99116733D01*
X125547326Y-99292773D01*
X125320990Y-99292773D01*
X125320990Y-99210531D01*
X125318150Y-99154386D01*
X125308607Y-99115416D01*
X125297009Y-99094219D01*
X125288723Y-99079052D01*
X125281627Y-99057062D01*
X125275252Y-99024987D01*
X125269128Y-98979569D01*
X125262784Y-98917548D01*
X125255750Y-98835662D01*
X125250934Y-98774746D01*
X125228839Y-98489343D01*
X124686435Y-99038805D01*
X124588363Y-99138228D01*
X124494216Y-99233815D01*
X124405715Y-99323810D01*
X124324580Y-99406457D01*
X124252531Y-99480001D01*
X124191288Y-99542684D01*
X124142573Y-99592752D01*
X124108104Y-99628448D01*
X124089621Y-99647995D01*
X124059257Y-99678944D01*
X124033929Y-99700530D01*
X124020305Y-99707723D01*
X124002905Y-99699297D01*
X123977540Y-99678245D01*
X123968942Y-99669671D01*
X123932486Y-99631620D01*
X124133198Y-99427658D01*
X124184404Y-99375699D01*
X124250431Y-99308820D01*
X124328382Y-99229950D01*
X124415362Y-99142014D01*
X124508474Y-99047941D01*
X124604821Y-98950658D01*
X124701508Y-98853093D01*
X124770866Y-98783145D01*
X124876297Y-98676550D01*
X124964871Y-98586307D01*
X125037719Y-98511192D01*
X125095977Y-98449986D01*
X125140775Y-98401466D01*
X125162979Y-98376129D01*
X125341276Y-98376129D01*
X125363599Y-98661555D01*
X125370331Y-98745219D01*
X125376843Y-98821727D01*
X125382766Y-98887081D01*
X125387732Y-98937281D01*
X125391371Y-98968329D01*
X125392542Y-98975273D01*
X125399162Y-99003565D01*
X126348636Y-99003565D01*
X126354974Y-98924606D01*
X126374110Y-98831315D01*
X126414154Y-98748791D01*
X126472582Y-98680038D01*
X126546871Y-98628063D01*
X126630252Y-98596863D01*
X126657302Y-98582228D01*
X126670844Y-98550819D01*
X126671128Y-98549434D01*
X126672753Y-98536174D01*
X126670744Y-98522595D01*
X126663142Y-98506181D01*
X126647984Y-98484411D01*
X126623312Y-98454767D01*
X126587164Y-98414732D01*
X126537580Y-98361785D01*
X126472599Y-98293409D01*
X126468401Y-98289005D01*
X126398507Y-98215611D01*
X126324200Y-98137437D01*
X126250586Y-98059864D01*
X126182771Y-97988275D01*
X126125860Y-97928051D01*
X126113168Y-97914587D01*
X126064513Y-97863820D01*
X126021291Y-97820375D01*
X125986605Y-97787241D01*
X125963556Y-97767405D01*
X125955818Y-97763046D01*
X125944278Y-97772170D01*
X125917290Y-97797200D01*
X125876979Y-97836052D01*
X125825471Y-97886643D01*
X125764891Y-97946888D01*
X125697364Y-98014704D01*
X125642174Y-98070565D01*
X125341276Y-98376129D01*
X125162979Y-98376129D01*
X125173249Y-98364411D01*
X125194529Y-98337599D01*
X125205749Y-98319808D01*
X125208246Y-98311570D01*
X125207300Y-98293590D01*
X125204427Y-98252892D01*
X125199813Y-98191819D01*
X125193642Y-98112713D01*
X125186102Y-98017914D01*
X125177379Y-97909767D01*
X125167657Y-97790612D01*
X125157124Y-97662791D01*
X125148635Y-97560635D01*
X125100604Y-96984674D01*
X125224195Y-96984674D01*
X125224727Y-96997104D01*
X125227231Y-97032110D01*
X125231504Y-97087215D01*
X125237347Y-97159943D01*
X125244557Y-97247814D01*
X125252934Y-97348351D01*
X125262277Y-97459077D01*
X125271242Y-97564205D01*
X125281398Y-97683483D01*
X125290858Y-97796080D01*
X125299404Y-97899305D01*
X125306821Y-97990473D01*
X125312892Y-98066895D01*
X125317399Y-98125883D01*
X125320127Y-98164749D01*
X125320884Y-98179844D01*
X125322065Y-98189238D01*
X125326744Y-98192966D01*
X125336724Y-98189471D01*
X125353810Y-98177199D01*
X125379804Y-98154594D01*
X125416510Y-98120100D01*
X125465733Y-98072162D01*
X125529274Y-98009224D01*
X125596695Y-97941968D01*
X125872399Y-97666477D01*
X125870467Y-97664406D01*
X126052710Y-97664406D01*
X126061016Y-97675780D01*
X126084267Y-97702563D01*
X126120135Y-97742292D01*
X126166287Y-97792507D01*
X126220394Y-97850746D01*
X126280126Y-97914547D01*
X126343152Y-97981449D01*
X126407142Y-98048990D01*
X126469764Y-98114710D01*
X126528690Y-98176146D01*
X126581588Y-98230837D01*
X126626128Y-98276322D01*
X126659980Y-98310138D01*
X126680812Y-98329826D01*
X126686494Y-98333837D01*
X126688366Y-98320891D01*
X126692254Y-98285134D01*
X126697943Y-98228804D01*
X126705219Y-98154140D01*
X126713869Y-98063380D01*
X126723678Y-97958762D01*
X126734434Y-97842526D01*
X126745921Y-97716908D01*
X126755093Y-97615618D01*
X126766826Y-97484279D01*
X126777665Y-97360552D01*
X126787430Y-97246681D01*
X126795937Y-97144911D01*
X126803005Y-97057487D01*
X126808451Y-96986653D01*
X126812092Y-96934653D01*
X126813747Y-96903732D01*
X126813558Y-96895703D01*
X126803666Y-96902854D01*
X126778476Y-96925841D01*
X126740190Y-96962439D01*
X126691011Y-97010422D01*
X126633139Y-97067566D01*
X126568778Y-97131647D01*
X126500129Y-97200438D01*
X126429395Y-97271716D01*
X126358778Y-97343255D01*
X126290480Y-97412830D01*
X126226704Y-97478217D01*
X126169650Y-97537191D01*
X126121522Y-97587527D01*
X126084522Y-97626999D01*
X126060852Y-97653383D01*
X126052710Y-97664406D01*
X125870467Y-97664406D01*
X125769591Y-97556295D01*
X125717232Y-97500377D01*
X125658465Y-97437948D01*
X125595615Y-97371443D01*
X125531005Y-97303298D01*
X125466958Y-97235948D01*
X125405797Y-97171828D01*
X125349847Y-97113372D01*
X125301430Y-97063018D01*
X125262870Y-97023198D01*
X125236491Y-96996350D01*
X125224616Y-96984908D01*
X125224195Y-96984674D01*
X125100604Y-96984674D01*
X125088599Y-96840726D01*
X124488062Y-96209158D01*
X123887525Y-95577589D01*
X123887966Y-95489315D01*
X123888408Y-95401040D01*
X123985417Y-95504666D01*
X124039709Y-95562463D01*
X124103808Y-95630368D01*
X124175984Y-95706572D01*
X124254508Y-95789269D01*
X124337651Y-95876653D01*
X124423681Y-95966915D01*
X124510870Y-96058250D01*
X124597487Y-96148849D01*
X124681803Y-96236907D01*
X124762088Y-96320615D01*
X124836613Y-96398167D01*
X124903646Y-96467757D01*
X124961459Y-96527576D01*
X125008321Y-96575818D01*
X125042504Y-96610676D01*
X125062276Y-96630343D01*
X125066610Y-96634116D01*
X125066908Y-96620992D01*
X125065269Y-96587389D01*
X125061977Y-96537880D01*
X125057318Y-96477037D01*
X125055318Y-96452732D01*
X125040423Y-96274951D01*
X125157045Y-96274951D01*
X125163066Y-96303243D01*
X125166137Y-96325618D01*
X125170452Y-96367717D01*
X125175512Y-96424178D01*
X125180819Y-96489635D01*
X125182656Y-96513862D01*
X125188073Y-96583421D01*
X125193541Y-96648018D01*
X125198512Y-96701548D01*
X125202439Y-96737910D01*
X125203325Y-96744509D01*
X125206666Y-96758056D01*
X125213899Y-96773914D01*
X125226560Y-96793861D01*
X125246189Y-96819673D01*
X125274322Y-96853129D01*
X125312498Y-96896007D01*
X125362254Y-96950083D01*
X125425129Y-97017136D01*
X125502659Y-97098943D01*
X125581749Y-97181950D01*
X125660436Y-97264094D01*
X125733888Y-97340169D01*
X125800276Y-97408325D01*
X125857773Y-97466712D01*
X125904549Y-97513481D01*
X125938776Y-97546782D01*
X125958627Y-97564767D01*
X125962860Y-97567442D01*
X125973997Y-97557741D01*
X126000029Y-97532441D01*
X126038430Y-97494082D01*
X126086672Y-97445200D01*
X126142230Y-97388334D01*
X126182408Y-97346906D01*
X126392169Y-97130000D01*
X125773663Y-97130000D01*
X125773663Y-96891089D01*
X126528119Y-96891089D01*
X126528119Y-96997542D01*
X126666435Y-96859654D01*
X126764553Y-96761840D01*
X126955643Y-96761840D01*
X126957471Y-96777270D01*
X126966723Y-96785867D01*
X126989050Y-96789613D01*
X127030105Y-96790489D01*
X127037376Y-96790495D01*
X127119109Y-96790495D01*
X127119109Y-96571172D01*
X127037376Y-96652179D01*
X126991270Y-96701428D01*
X126963694Y-96739159D01*
X126955643Y-96761840D01*
X126764553Y-96761840D01*
X126804752Y-96721766D01*
X126804752Y-96598952D01*
X126805137Y-96542450D01*
X126806900Y-96506505D01*
X126810950Y-96486530D01*
X126818199Y-96477937D01*
X126829130Y-96476139D01*
X126841288Y-96473498D01*
X126850273Y-96462912D01*
X126857174Y-96440381D01*
X126863076Y-96401909D01*
X126869065Y-96343498D01*
X126870987Y-96322104D01*
X126875148Y-96274951D01*
X125157045Y-96274951D01*
X125040423Y-96274951D01*
X124880891Y-96274951D01*
X124880891Y-96161782D01*
X124948686Y-96161782D01*
X124988338Y-96160696D01*
X125009884Y-96155454D01*
X125012520Y-96152334D01*
G36*
X125012520Y-96152334D02*
G01*
X125151384Y-96152334D01*
X125158692Y-96159462D01*
X125184007Y-96161662D01*
X125201092Y-96161782D01*
X125258119Y-96161782D01*
X125470779Y-96161782D01*
X126885302Y-96161782D01*
X126837458Y-96112786D01*
X126763150Y-96052324D01*
X126671184Y-96005691D01*
X126560002Y-95972249D01*
X126449529Y-95953753D01*
X126377227Y-95945122D01*
X126377227Y-96036040D01*
X125798812Y-96036040D01*
X125798812Y-95932893D01*
X125713935Y-95941496D01*
X125654632Y-95948756D01*
X125591449Y-95958379D01*
X125553614Y-95965252D01*
X125478168Y-95980407D01*
X125474474Y-96071095D01*
X125470779Y-96161782D01*
X125258119Y-96161782D01*
X125258119Y-96111485D01*
X125256456Y-96079976D01*
X125252303Y-96062463D01*
X125250629Y-96061188D01*
X125232013Y-96069254D01*
X125204817Y-96088820D01*
X125177552Y-96112944D01*
X125158733Y-96134682D01*
X125157057Y-96137508D01*
X125151384Y-96152334D01*
X125012520Y-96152334D01*
X125020338Y-96143081D01*
X125024558Y-96129604D01*
X125041781Y-96094627D01*
X125074862Y-96052579D01*
X125118107Y-96009356D01*
X125165826Y-95970854D01*
X125197170Y-95950801D01*
X125232877Y-95928851D01*
X125251181Y-95910411D01*
X125257612Y-95888668D01*
X125258106Y-95875718D01*
X125258106Y-95872575D01*
X125899406Y-95872575D01*
X125899406Y-95935446D01*
X126276633Y-95935446D01*
X126276633Y-95872575D01*
X125899406Y-95872575D01*
X125258106Y-95872575D01*
X125258119Y-95834852D01*
X125363952Y-95834852D01*
X125412645Y-95836029D01*
X125450595Y-95839165D01*
X125471692Y-95843671D01*
X125473977Y-95845495D01*
X125487359Y-95848295D01*
X125519926Y-95847148D01*
X125566084Y-95842393D01*
X125597624Y-95838003D01*
X125654812Y-95829378D01*
X125707114Y-95821591D01*
X125746418Y-95815847D01*
X125757945Y-95814215D01*
X125788063Y-95804888D01*
X125798812Y-95790272D01*
X125802080Y-95784320D01*
X125813770Y-95779778D01*
X125836712Y-95776470D01*
X125873735Y-95774215D01*
X125927668Y-95772834D01*
X126001340Y-95772150D01*
X126088020Y-95771980D01*
X126180529Y-95772077D01*
X126250906Y-95772530D01*
X126302164Y-95773590D01*
X126337320Y-95775503D01*
X126359389Y-95778519D01*
X126371385Y-95782885D01*
X126376324Y-95788849D01*
X126377227Y-95795784D01*
X126384921Y-95817795D01*
X126410121Y-95830321D01*
X126456009Y-95834788D01*
X126464264Y-95834852D01*
X126541973Y-95842868D01*
X126630233Y-95864936D01*
X126721085Y-95898084D01*
X126806570Y-95939339D01*
X126878726Y-95985731D01*
X126888072Y-95993082D01*
X126918533Y-96016998D01*
X126936572Y-96026576D01*
X126949169Y-96023480D01*
X126962100Y-96010704D01*
X127000293Y-95985678D01*
X127049998Y-95976071D01*
X127103524Y-95981067D01*
X127153178Y-95999851D01*
X127191267Y-96031606D01*
X127194025Y-96035297D01*
X127222526Y-96094575D01*
X127227828Y-96155934D01*
X127210518Y-96214427D01*
X127171180Y-96265104D01*
X127166370Y-96269289D01*
X127138440Y-96289167D01*
X127110102Y-96297921D01*
X127070263Y-96298553D01*
X127060311Y-96297992D01*
X127021332Y-96296562D01*
X127001254Y-96299839D01*
X126993985Y-96309728D01*
X126993240Y-96318961D01*
X126991716Y-96345744D01*
X126987935Y-96386025D01*
X126985218Y-96410124D01*
X126981277Y-96448401D01*
X126982916Y-96467996D01*
X126992421Y-96475158D01*
X127009351Y-96476139D01*
X127019392Y-96472901D01*
X127035590Y-96462420D01*
X127059145Y-96443548D01*
X127091257Y-96415135D01*
X127133128Y-96376035D01*
X127185957Y-96325097D01*
X127250945Y-96261173D01*
X127329291Y-96183114D01*
X127422197Y-96089772D01*
X127530863Y-95979998D01*
X127583231Y-95926952D01*
X128125049Y-95377767D01*
X128124430Y-95464848D01*
X128123811Y-95551931D01*
X127672086Y-96010891D01*
X127220361Y-96469852D01*
X127220032Y-96680471D01*
X127219703Y-96891089D01*
X126944610Y-96891089D01*
X126937522Y-96944530D01*
X126934838Y-96968888D01*
X126930313Y-97014759D01*
X126924191Y-97079405D01*
X126916712Y-97160091D01*
X126908119Y-97254081D01*
X126898654Y-97358637D01*
X126888558Y-97471025D01*
X126878074Y-97588507D01*
X126867444Y-97708348D01*
X126856909Y-97827811D01*
X126846713Y-97944159D01*
X126837095Y-98054657D01*
X126828300Y-98156569D01*
X126820568Y-98247158D01*
X126814142Y-98323687D01*
X126809263Y-98383421D01*
X126806175Y-98423624D01*
X126805117Y-98441559D01*
X126805118Y-98441644D01*
X126812827Y-98456035D01*
X126835981Y-98485748D01*
X126874895Y-98531131D01*
X126929884Y-98592529D01*
X127001264Y-98670288D01*
X127089349Y-98764754D01*
X127194454Y-98876272D01*
X127316895Y-99005188D01*
X127351310Y-99041287D01*
X127897137Y-99613416D01*
X127808881Y-99701436D01*
X127737485Y-99623758D01*
X127711366Y-99595686D01*
X127670566Y-99552274D01*
X127617777Y-99496366D01*
X127555691Y-99430808D01*
X127487000Y-99358441D01*
X127414396Y-99282112D01*
X127370960Y-99236524D01*
X127289416Y-99151119D01*
X127223504Y-99082710D01*
X127171544Y-99030053D01*
X127131855Y-98991905D01*
X127102757Y-98967020D01*
X127082569Y-98954156D01*
X127069610Y-98952068D01*
X127062200Y-98959513D01*
X127058658Y-98975246D01*
X127057303Y-98998023D01*
X127057121Y-99004239D01*
X127047703Y-99047061D01*
X127024497Y-99098819D01*
X126992136Y-99151328D01*
X126955252Y-99196403D01*
X126940493Y-99210328D01*
X126864767Y-99259047D01*
X126776308Y-99286306D01*
X126698100Y-99292773D01*
X126609468Y-99280576D01*
X126527612Y-99244813D01*
X126455164Y-99186722D01*
X126441797Y-99172262D01*
X126392918Y-99116733D01*
X125547326Y-99116733D01*
X125547326Y-99292773D01*
X125320990Y-99292773D01*
X125320990Y-99210531D01*
X125318150Y-99154386D01*
X125308607Y-99115416D01*
X125297009Y-99094219D01*
X125288723Y-99079052D01*
X125281627Y-99057062D01*
X125275252Y-99024987D01*
X125269128Y-98979569D01*
X125262784Y-98917548D01*
X125255750Y-98835662D01*
X125250934Y-98774746D01*
X125228839Y-98489343D01*
X124686435Y-99038805D01*
X124588363Y-99138228D01*
X124494216Y-99233815D01*
X124405715Y-99323810D01*
X124324580Y-99406457D01*
X124252531Y-99480001D01*
X124191288Y-99542684D01*
X124142573Y-99592752D01*
X124108104Y-99628448D01*
X124089621Y-99647995D01*
X124059257Y-99678944D01*
X124033929Y-99700530D01*
X124020305Y-99707723D01*
X124002905Y-99699297D01*
X123977540Y-99678245D01*
X123968942Y-99669671D01*
X123932486Y-99631620D01*
X124133198Y-99427658D01*
X124184404Y-99375699D01*
X124250431Y-99308820D01*
X124328382Y-99229950D01*
X124415362Y-99142014D01*
X124508474Y-99047941D01*
X124604821Y-98950658D01*
X124701508Y-98853093D01*
X124770866Y-98783145D01*
X124876297Y-98676550D01*
X124964871Y-98586307D01*
X125037719Y-98511192D01*
X125095977Y-98449986D01*
X125140775Y-98401466D01*
X125162979Y-98376129D01*
X125341276Y-98376129D01*
X125363599Y-98661555D01*
X125370331Y-98745219D01*
X125376843Y-98821727D01*
X125382766Y-98887081D01*
X125387732Y-98937281D01*
X125391371Y-98968329D01*
X125392542Y-98975273D01*
X125399162Y-99003565D01*
X126348636Y-99003565D01*
X126354974Y-98924606D01*
X126374110Y-98831315D01*
X126414154Y-98748791D01*
X126472582Y-98680038D01*
X126546871Y-98628063D01*
X126630252Y-98596863D01*
X126657302Y-98582228D01*
X126670844Y-98550819D01*
X126671128Y-98549434D01*
X126672753Y-98536174D01*
X126670744Y-98522595D01*
X126663142Y-98506181D01*
X126647984Y-98484411D01*
X126623312Y-98454767D01*
X126587164Y-98414732D01*
X126537580Y-98361785D01*
X126472599Y-98293409D01*
X126468401Y-98289005D01*
X126398507Y-98215611D01*
X126324200Y-98137437D01*
X126250586Y-98059864D01*
X126182771Y-97988275D01*
X126125860Y-97928051D01*
X126113168Y-97914587D01*
X126064513Y-97863820D01*
X126021291Y-97820375D01*
X125986605Y-97787241D01*
X125963556Y-97767405D01*
X125955818Y-97763046D01*
X125944278Y-97772170D01*
X125917290Y-97797200D01*
X125876979Y-97836052D01*
X125825471Y-97886643D01*
X125764891Y-97946888D01*
X125697364Y-98014704D01*
X125642174Y-98070565D01*
X125341276Y-98376129D01*
X125162979Y-98376129D01*
X125173249Y-98364411D01*
X125194529Y-98337599D01*
X125205749Y-98319808D01*
X125208246Y-98311570D01*
X125207300Y-98293590D01*
X125204427Y-98252892D01*
X125199813Y-98191819D01*
X125193642Y-98112713D01*
X125186102Y-98017914D01*
X125177379Y-97909767D01*
X125167657Y-97790612D01*
X125157124Y-97662791D01*
X125148635Y-97560635D01*
X125100604Y-96984674D01*
X125224195Y-96984674D01*
X125224727Y-96997104D01*
X125227231Y-97032110D01*
X125231504Y-97087215D01*
X125237347Y-97159943D01*
X125244557Y-97247814D01*
X125252934Y-97348351D01*
X125262277Y-97459077D01*
X125271242Y-97564205D01*
X125281398Y-97683483D01*
X125290858Y-97796080D01*
X125299404Y-97899305D01*
X125306821Y-97990473D01*
X125312892Y-98066895D01*
X125317399Y-98125883D01*
X125320127Y-98164749D01*
X125320884Y-98179844D01*
X125322065Y-98189238D01*
X125326744Y-98192966D01*
X125336724Y-98189471D01*
X125353810Y-98177199D01*
X125379804Y-98154594D01*
X125416510Y-98120100D01*
X125465733Y-98072162D01*
X125529274Y-98009224D01*
X125596695Y-97941968D01*
X125872399Y-97666477D01*
X125870467Y-97664406D01*
X126052710Y-97664406D01*
X126061016Y-97675780D01*
X126084267Y-97702563D01*
X126120135Y-97742292D01*
X126166287Y-97792507D01*
X126220394Y-97850746D01*
X126280126Y-97914547D01*
X126343152Y-97981449D01*
X126407142Y-98048990D01*
X126469764Y-98114710D01*
X126528690Y-98176146D01*
X126581588Y-98230837D01*
X126626128Y-98276322D01*
X126659980Y-98310138D01*
X126680812Y-98329826D01*
X126686494Y-98333837D01*
X126688366Y-98320891D01*
X126692254Y-98285134D01*
X126697943Y-98228804D01*
X126705219Y-98154140D01*
X126713869Y-98063380D01*
X126723678Y-97958762D01*
X126734434Y-97842526D01*
X126745921Y-97716908D01*
X126755093Y-97615618D01*
X126766826Y-97484279D01*
X126777665Y-97360552D01*
X126787430Y-97246681D01*
X126795937Y-97144911D01*
X126803005Y-97057487D01*
X126808451Y-96986653D01*
X126812092Y-96934653D01*
X126813747Y-96903732D01*
X126813558Y-96895703D01*
X126803666Y-96902854D01*
X126778476Y-96925841D01*
X126740190Y-96962439D01*
X126691011Y-97010422D01*
X126633139Y-97067566D01*
X126568778Y-97131647D01*
X126500129Y-97200438D01*
X126429395Y-97271716D01*
X126358778Y-97343255D01*
X126290480Y-97412830D01*
X126226704Y-97478217D01*
X126169650Y-97537191D01*
X126121522Y-97587527D01*
X126084522Y-97626999D01*
X126060852Y-97653383D01*
X126052710Y-97664406D01*
X125870467Y-97664406D01*
X125769591Y-97556295D01*
X125717232Y-97500377D01*
X125658465Y-97437948D01*
X125595615Y-97371443D01*
X125531005Y-97303298D01*
X125466958Y-97235948D01*
X125405797Y-97171828D01*
X125349847Y-97113372D01*
X125301430Y-97063018D01*
X125262870Y-97023198D01*
X125236491Y-96996350D01*
X125224616Y-96984908D01*
X125224195Y-96984674D01*
X125100604Y-96984674D01*
X125088599Y-96840726D01*
X124488062Y-96209158D01*
X123887525Y-95577589D01*
X123887966Y-95489315D01*
X123888408Y-95401040D01*
X123985417Y-95504666D01*
X124039709Y-95562463D01*
X124103808Y-95630368D01*
X124175984Y-95706572D01*
X124254508Y-95789269D01*
X124337651Y-95876653D01*
X124423681Y-95966915D01*
X124510870Y-96058250D01*
X124597487Y-96148849D01*
X124681803Y-96236907D01*
X124762088Y-96320615D01*
X124836613Y-96398167D01*
X124903646Y-96467757D01*
X124961459Y-96527576D01*
X125008321Y-96575818D01*
X125042504Y-96610676D01*
X125062276Y-96630343D01*
X125066610Y-96634116D01*
X125066908Y-96620992D01*
X125065269Y-96587389D01*
X125061977Y-96537880D01*
X125057318Y-96477037D01*
X125055318Y-96452732D01*
X125040423Y-96274951D01*
X125157045Y-96274951D01*
X125163066Y-96303243D01*
X125166137Y-96325618D01*
X125170452Y-96367717D01*
X125175512Y-96424178D01*
X125180819Y-96489635D01*
X125182656Y-96513862D01*
X125188073Y-96583421D01*
X125193541Y-96648018D01*
X125198512Y-96701548D01*
X125202439Y-96737910D01*
X125203325Y-96744509D01*
X125206666Y-96758056D01*
X125213899Y-96773914D01*
X125226560Y-96793861D01*
X125246189Y-96819673D01*
X125274322Y-96853129D01*
X125312498Y-96896007D01*
X125362254Y-96950083D01*
X125425129Y-97017136D01*
X125502659Y-97098943D01*
X125581749Y-97181950D01*
X125660436Y-97264094D01*
X125733888Y-97340169D01*
X125800276Y-97408325D01*
X125857773Y-97466712D01*
X125904549Y-97513481D01*
X125938776Y-97546782D01*
X125958627Y-97564767D01*
X125962860Y-97567442D01*
X125973997Y-97557741D01*
X126000029Y-97532441D01*
X126038430Y-97494082D01*
X126086672Y-97445200D01*
X126142230Y-97388334D01*
X126182408Y-97346906D01*
X126392169Y-97130000D01*
X125773663Y-97130000D01*
X125773663Y-96891089D01*
X126528119Y-96891089D01*
X126528119Y-96997542D01*
X126666435Y-96859654D01*
X126764553Y-96761840D01*
X126955643Y-96761840D01*
X126957471Y-96777270D01*
X126966723Y-96785867D01*
X126989050Y-96789613D01*
X127030105Y-96790489D01*
X127037376Y-96790495D01*
X127119109Y-96790495D01*
X127119109Y-96571172D01*
X127037376Y-96652179D01*
X126991270Y-96701428D01*
X126963694Y-96739159D01*
X126955643Y-96761840D01*
X126764553Y-96761840D01*
X126804752Y-96721766D01*
X126804752Y-96598952D01*
X126805137Y-96542450D01*
X126806900Y-96506505D01*
X126810950Y-96486530D01*
X126818199Y-96477937D01*
X126829130Y-96476139D01*
X126841288Y-96473498D01*
X126850273Y-96462912D01*
X126857174Y-96440381D01*
X126863076Y-96401909D01*
X126869065Y-96343498D01*
X126870987Y-96322104D01*
X126875148Y-96274951D01*
X125157045Y-96274951D01*
X125040423Y-96274951D01*
X124880891Y-96274951D01*
X124880891Y-96161782D01*
X124948686Y-96161782D01*
X124988338Y-96160696D01*
X125009884Y-96155454D01*
X125012520Y-96152334D01*
G37*
D12*
%TO.C,R5*%
X130535000Y-98139564D02*
X130535000Y-97685436D01*
X129065000Y-98139564D02*
X129065000Y-97685436D01*
%TO.C,R4*%
X130865000Y-98227064D02*
X130865000Y-97772936D01*
X132335000Y-98227064D02*
X132335000Y-97772936D01*
%TO.C,R3*%
X122265000Y-101427064D02*
X122265000Y-100972936D01*
X123735000Y-101427064D02*
X123735000Y-100972936D01*
%TO.C,R2*%
X119647500Y-93514564D02*
X119647500Y-93060436D01*
X118177500Y-93514564D02*
X118177500Y-93060436D01*
%TO.C,R1*%
X119735000Y-97627064D02*
X119735000Y-97172936D01*
X118265000Y-97627064D02*
X118265000Y-97172936D01*
D10*
%TO.C,Q1*%
X122525000Y-91825000D02*
X126675000Y-91825000D01*
X122525000Y-92025000D02*
X121225000Y-92025000D01*
X126675000Y-96975000D02*
X126675000Y-96775000D01*
X122525000Y-91825000D02*
X122525000Y-92025000D01*
X122525000Y-96975000D02*
X126675000Y-96975000D01*
X126675000Y-91825000D02*
X126675000Y-92025000D01*
X122525000Y-96975000D02*
X122525000Y-96775000D01*
D12*
%TO.C,JP1*%
X120800000Y-102400000D02*
X118000000Y-102400000D01*
X117350000Y-101700000D02*
X117350000Y-101100000D01*
X121450000Y-101100000D02*
X121450000Y-101700000D01*
X118000000Y-100400000D02*
X120800000Y-100400000D01*
X118050000Y-100400000D02*
G75*
G03*
X117350000Y-101100000I-1J-699999D01*
G01*
X121450000Y-101100000D02*
G75*
G03*
X120750000Y-100400000I-700000J0D01*
G01*
X117350000Y-101700000D02*
G75*
G03*
X118050000Y-102400000I699999J-1D01*
G01*
X120750000Y-102400000D02*
G75*
G03*
X121450000Y-101700000I0J700000D01*
G01*
%TO.C,J1*%
X116530000Y-91870000D02*
X116530000Y-102090000D01*
X113870000Y-89270000D02*
X115200000Y-89270000D01*
X113870000Y-91870000D02*
X113870000Y-102090000D01*
X113870000Y-102090000D02*
X116530000Y-102090000D01*
X113870000Y-91870000D02*
X116530000Y-91870000D01*
X113870000Y-90600000D02*
X113870000Y-89270000D01*
%TO.C,D2*%
X127885000Y-100240000D02*
X125200000Y-100240000D01*
X127885000Y-102160000D02*
X127885000Y-100240000D01*
X125200000Y-102160000D02*
X127885000Y-102160000D01*
%TO.C,D1*%
X130600000Y-92440000D02*
X131250000Y-92440000D01*
X130600000Y-95560000D02*
X132275000Y-95560000D01*
X130600000Y-92440000D02*
X129950000Y-92440000D01*
X130600000Y-95560000D02*
X129950000Y-95560000D01*
%TO.C,C3*%
X131400000Y-100815000D02*
X128515000Y-100815000D01*
X128515000Y-100815000D02*
X128515000Y-102385000D01*
X128515000Y-102385000D02*
X131400000Y-102385000D01*
%TO.C,C2*%
X118690000Y-90585000D02*
X121575000Y-90585000D01*
X118690000Y-89015000D02*
X118690000Y-90585000D01*
X121575000Y-89015000D02*
X118690000Y-89015000D01*
%TO.C,C1*%
X124290000Y-90585000D02*
X127175000Y-90585000D01*
X124290000Y-89015000D02*
X124290000Y-90585000D01*
X127175000Y-89015000D02*
X124290000Y-89015000D01*
%TD*%
M02*
