%TF.GenerationSoftware,KiCad,Pcbnew,7.0.1-0*%
%TF.CreationDate,2023-04-25T00:20:10+03:00*%
%TF.ProjectId,power switch with delay,706f7765-7220-4737-9769-746368207769,rev?*%
%TF.SameCoordinates,Original*%
%TF.FileFunction,Soldermask,Top*%
%TF.FilePolarity,Negative*%
%FSLAX46Y46*%
G04 Gerber Fmt 4.6, Leading zero omitted, Abs format (unit mm)*
G04 Created by KiCad (PCBNEW 7.0.1-0) date 2023-04-25 00:20:10*
%MOMM*%
%LPD*%
G01*
G04 APERTURE LIST*
G04 Aperture macros list*
%AMRoundRect*
0 Rectangle with rounded corners*
0 $1 Rounding radius*
0 $2 $3 $4 $5 $6 $7 $8 $9 X,Y pos of 4 corners*
0 Add a 4 corners polygon primitive as box body*
4,1,4,$2,$3,$4,$5,$6,$7,$8,$9,$2,$3,0*
0 Add four circle primitives for the rounded corners*
1,1,$1+$1,$2,$3*
1,1,$1+$1,$4,$5*
1,1,$1+$1,$6,$7*
1,1,$1+$1,$8,$9*
0 Add four rect primitives between the rounded corners*
20,1,$1+$1,$2,$3,$4,$5,0*
20,1,$1+$1,$4,$5,$6,$7,0*
20,1,$1+$1,$6,$7,$8,$9,0*
20,1,$1+$1,$8,$9,$2,$3,0*%
%AMFreePoly0*
4,1,19,0.550000,-0.750000,0.000000,-0.750000,0.000000,-0.744911,-0.071157,-0.744911,-0.207708,-0.704816,-0.327430,-0.627875,-0.420627,-0.520320,-0.479746,-0.390866,-0.500000,-0.250000,-0.500000,0.250000,-0.479746,0.390866,-0.420627,0.520320,-0.327430,0.627875,-0.207708,0.704816,-0.071157,0.744911,0.000000,0.744911,0.000000,0.750000,0.550000,0.750000,0.550000,-0.750000,0.550000,-0.750000,
$1*%
%AMFreePoly1*
4,1,19,0.000000,0.744911,0.071157,0.744911,0.207708,0.704816,0.327430,0.627875,0.420627,0.520320,0.479746,0.390866,0.500000,0.250000,0.500000,-0.250000,0.479746,-0.390866,0.420627,-0.520320,0.327430,-0.627875,0.207708,-0.704816,0.071157,-0.744911,0.000000,-0.744911,0.000000,-0.750000,-0.550000,-0.750000,-0.550000,0.750000,0.000000,0.750000,0.000000,0.744911,0.000000,0.744911,
$1*%
G04 Aperture macros list end*
%ADD10RoundRect,0.250000X0.450000X-0.262500X0.450000X0.262500X-0.450000X0.262500X-0.450000X-0.262500X0*%
%ADD11R,1.500000X0.650000*%
%ADD12R,1.350000X1.800000*%
%ADD13FreePoly0,0.000000*%
%ADD14R,1.000000X1.500000*%
%ADD15FreePoly1,0.000000*%
%ADD16R,1.700000X1.700000*%
%ADD17O,1.700000X1.700000*%
%ADD18RoundRect,0.243750X0.243750X0.456250X-0.243750X0.456250X-0.243750X-0.456250X0.243750X-0.456250X0*%
%ADD19RoundRect,0.150000X0.587500X0.150000X-0.587500X0.150000X-0.587500X-0.150000X0.587500X-0.150000X0*%
%ADD20RoundRect,0.250000X-0.400000X-0.275000X0.400000X-0.275000X0.400000X0.275000X-0.400000X0.275000X0*%
G04 APERTURE END LIST*
D10*
%TO.C,R5*%
X129800000Y-97000000D03*
X129800000Y-98825000D03*
%TD*%
%TO.C,R4*%
X131600000Y-98912500D03*
X131600000Y-97087500D03*
%TD*%
%TO.C,R3*%
X123000000Y-102112500D03*
X123000000Y-100287500D03*
%TD*%
%TO.C,R2*%
X118912500Y-92375000D03*
X118912500Y-94200000D03*
%TD*%
%TO.C,R1*%
X119000000Y-96487500D03*
X119000000Y-98312500D03*
%TD*%
D11*
%TO.C,Q1*%
X121900000Y-92495000D03*
X121900000Y-93765000D03*
X121900000Y-95035000D03*
X121900000Y-96305000D03*
X127300000Y-96305000D03*
X127300000Y-95035000D03*
X127300000Y-93765000D03*
X127300000Y-92495000D03*
D12*
X125275000Y-93500000D03*
X125275000Y-95300000D03*
X123925000Y-93500000D03*
X123925000Y-95300000D03*
%TD*%
D13*
%TO.C,JP1*%
X118100000Y-101400000D03*
D14*
X119400000Y-101400000D03*
D15*
X120700000Y-101400000D03*
%TD*%
D16*
%TO.C,J1*%
X115200000Y-90600000D03*
D17*
X115200000Y-93140000D03*
X115200000Y-95680000D03*
X115200000Y-98220000D03*
X115200000Y-100760000D03*
%TD*%
D18*
%TO.C,D2*%
X127137500Y-101200000D03*
X125262500Y-101200000D03*
%TD*%
D19*
%TO.C,D1*%
X129662500Y-94000000D03*
X131537500Y-93050000D03*
X131537500Y-94950000D03*
%TD*%
D20*
%TO.C,C3*%
X129425000Y-101600000D03*
X131375000Y-101600000D03*
%TD*%
%TO.C,C2*%
X121550000Y-89800000D03*
X119600000Y-89800000D03*
%TD*%
%TO.C,C1*%
X127150000Y-89800000D03*
X125200000Y-89800000D03*
%TD*%
M02*
