%TF.GenerationSoftware,KiCad,Pcbnew,7.0.1-0*%
%TF.CreationDate,2023-04-25T00:20:10+03:00*%
%TF.ProjectId,power switch with delay,706f7765-7220-4737-9769-746368207769,rev?*%
%TF.SameCoordinates,Original*%
%TF.FileFunction,Copper,L2,Bot*%
%TF.FilePolarity,Positive*%
%FSLAX46Y46*%
G04 Gerber Fmt 4.6, Leading zero omitted, Abs format (unit mm)*
G04 Created by KiCad (PCBNEW 7.0.1-0) date 2023-04-25 00:20:10*
%MOMM*%
%LPD*%
G01*
G04 APERTURE LIST*
%TA.AperFunction,ComponentPad*%
%ADD10R,1.700000X1.700000*%
%TD*%
%TA.AperFunction,ComponentPad*%
%ADD11O,1.700000X1.700000*%
%TD*%
%TA.AperFunction,ViaPad*%
%ADD12C,0.800000*%
%TD*%
%TA.AperFunction,Conductor*%
%ADD13C,0.250000*%
%TD*%
G04 APERTURE END LIST*
D10*
%TO.P,J1,1,Pin_1*%
%TO.N,OUT+*%
X115200000Y-90600000D03*
D11*
%TO.P,J1,2,Pin_2*%
%TO.N,GND*%
X115200000Y-93140000D03*
%TO.P,J1,3,Pin_3*%
%TO.N,BUT*%
X115200000Y-95680000D03*
%TO.P,J1,4,Pin_4*%
%TO.N,VCC*%
X115200000Y-98220000D03*
%TO.P,J1,5,Pin_5*%
%TO.N,GND*%
X115200000Y-100760000D03*
%TD*%
D12*
%TO.N,Net-(C3-Pad2)*%
X131600000Y-100000000D03*
X120591807Y-93475500D03*
%TO.N,OUT+*%
X121600000Y-99600000D03*
X117600000Y-90600000D03*
%TO.N,Net-(JP1-C)*%
X119600000Y-88600000D03*
X117600000Y-99275500D03*
%TO.N,VCC*%
X120400000Y-94675500D03*
X120600000Y-100000000D03*
%TO.N,BUT*%
X123800000Y-89800000D03*
X116800000Y-95600000D03*
%TD*%
D13*
%TO.N,Net-(C3-Pad2)*%
X131600000Y-100000000D02*
X127116307Y-100000000D01*
X127116307Y-100000000D02*
X120591807Y-93475500D01*
%TO.N,Net-(JP1-C)*%
X117600000Y-99275500D02*
X117600000Y-95436396D01*
X117600000Y-95436396D02*
X122511396Y-90525000D01*
X122511396Y-90525000D02*
X124100305Y-90525000D01*
X124100305Y-90525000D02*
X124525000Y-90100305D01*
X124525000Y-90100305D02*
X124525000Y-89125000D01*
X124525000Y-89125000D02*
X124000000Y-88600000D01*
X124000000Y-88600000D02*
X119600000Y-88600000D01*
%TO.N,OUT+*%
X121600000Y-100025305D02*
X121600000Y-99600000D01*
X120900305Y-100725000D02*
X121600000Y-100025305D01*
X117016701Y-100725000D02*
X120900305Y-100725000D01*
X115686701Y-99395000D02*
X117016701Y-100725000D01*
X114025000Y-98706701D02*
X114713299Y-99395000D01*
X114025000Y-95193299D02*
X114025000Y-98706701D01*
X117600000Y-90600000D02*
X117600000Y-94163604D01*
X114713299Y-94505000D02*
X114025000Y-95193299D01*
X117600000Y-94163604D02*
X117258604Y-94505000D01*
X117258604Y-94505000D02*
X114713299Y-94505000D01*
X114713299Y-99395000D02*
X115686701Y-99395000D01*
%TO.N,VCC*%
X120600000Y-100000000D02*
X116980000Y-100000000D01*
X116980000Y-100000000D02*
X115200000Y-98220000D01*
X120400000Y-99800000D02*
X120600000Y-100000000D01*
X120400000Y-94675500D02*
X120400000Y-99800000D01*
%TO.N,BUT*%
X122600000Y-89800000D02*
X123800000Y-89800000D01*
X116800000Y-95600000D02*
X122600000Y-89800000D01*
%TD*%
%TA.AperFunction,Conductor*%
%TO.N,GND*%
G36*
X132937500Y-88217113D02*
G01*
X132982887Y-88262500D01*
X132999500Y-88324500D01*
X132999500Y-103675500D01*
X132982887Y-103737500D01*
X132937500Y-103782887D01*
X132875500Y-103799500D01*
X113324500Y-103799500D01*
X113262500Y-103782887D01*
X113217113Y-103737500D01*
X113200500Y-103675500D01*
X113200500Y-101010000D01*
X113869364Y-101010000D01*
X113926569Y-101223492D01*
X114026399Y-101437576D01*
X114161893Y-101631081D01*
X114328918Y-101798106D01*
X114522423Y-101933600D01*
X114736507Y-102033430D01*
X114949999Y-102090635D01*
X114950000Y-102090636D01*
X114950000Y-101010000D01*
X113869364Y-101010000D01*
X113200500Y-101010000D01*
X113200500Y-98982029D01*
X113214311Y-98925157D01*
X113252669Y-98880953D01*
X113307028Y-98859266D01*
X113365279Y-98864926D01*
X113414446Y-98896672D01*
X113443576Y-98947433D01*
X113446381Y-98957090D01*
X113456580Y-98974336D01*
X113465136Y-98991801D01*
X113472514Y-99010433D01*
X113472515Y-99010434D01*
X113498180Y-99045760D01*
X113504593Y-99055523D01*
X113526826Y-99093117D01*
X113526829Y-99093120D01*
X113526830Y-99093121D01*
X113540995Y-99107286D01*
X113553627Y-99122076D01*
X113565406Y-99138288D01*
X113599058Y-99166127D01*
X113607699Y-99173990D01*
X114154578Y-99720869D01*
X114186642Y-99776346D01*
X114186731Y-99840422D01*
X114165166Y-99877972D01*
X114168112Y-99880035D01*
X114026400Y-100082421D01*
X113926569Y-100296507D01*
X113869364Y-100509999D01*
X113869364Y-100510000D01*
X115326000Y-100510000D01*
X115388000Y-100526613D01*
X115433387Y-100572000D01*
X115450000Y-100634000D01*
X115450000Y-102090635D01*
X115663492Y-102033430D01*
X115877576Y-101933600D01*
X116071081Y-101798106D01*
X116238106Y-101631081D01*
X116373600Y-101437576D01*
X116449874Y-101274008D01*
X116485999Y-101228633D01*
X116538807Y-101204650D01*
X116596746Y-101207306D01*
X116632348Y-101227592D01*
X116632391Y-101227515D01*
X116663673Y-101244712D01*
X116679937Y-101255396D01*
X116691673Y-101264499D01*
X116695765Y-101267673D01*
X116720610Y-101278424D01*
X116735853Y-101285021D01*
X116746332Y-101290154D01*
X116784609Y-101311197D01*
X116804007Y-101316177D01*
X116822409Y-101322477D01*
X116840805Y-101330438D01*
X116883962Y-101337273D01*
X116895365Y-101339634D01*
X116937682Y-101350500D01*
X116957717Y-101350500D01*
X116977114Y-101352026D01*
X116996897Y-101355160D01*
X117040375Y-101351050D01*
X117052045Y-101350500D01*
X120817561Y-101350500D01*
X120838067Y-101352764D01*
X120840970Y-101352672D01*
X120840972Y-101352673D01*
X120908177Y-101350561D01*
X120912073Y-101350500D01*
X120939654Y-101350500D01*
X120939655Y-101350500D01*
X120943624Y-101349998D01*
X120955270Y-101349080D01*
X120998932Y-101347709D01*
X121018164Y-101342120D01*
X121037223Y-101338174D01*
X121044396Y-101337268D01*
X121057097Y-101335664D01*
X121097712Y-101319582D01*
X121108749Y-101315803D01*
X121150695Y-101303618D01*
X121167934Y-101293422D01*
X121185407Y-101284862D01*
X121204037Y-101277486D01*
X121239369Y-101251814D01*
X121249135Y-101245400D01*
X121277487Y-101228633D01*
X121286725Y-101223170D01*
X121300890Y-101209004D01*
X121315678Y-101196373D01*
X121331892Y-101184594D01*
X121359743Y-101150926D01*
X121367584Y-101142309D01*
X121983788Y-100526106D01*
X121999885Y-100513211D01*
X122001873Y-100511092D01*
X122001877Y-100511091D01*
X122047948Y-100462028D01*
X122050566Y-100459328D01*
X122070120Y-100439776D01*
X122072581Y-100436603D01*
X122080156Y-100427732D01*
X122110062Y-100395887D01*
X122119712Y-100378332D01*
X122130394Y-100362069D01*
X122142673Y-100346241D01*
X122146516Y-100337358D01*
X122187436Y-100286280D01*
X122205871Y-100272888D01*
X122332533Y-100132216D01*
X122427179Y-99968284D01*
X122485674Y-99788256D01*
X122505460Y-99600000D01*
X122485674Y-99411744D01*
X122453427Y-99312500D01*
X122427179Y-99231715D01*
X122332533Y-99067783D01*
X122205870Y-98927110D01*
X122052730Y-98815848D01*
X121879802Y-98738855D01*
X121694648Y-98699500D01*
X121694646Y-98699500D01*
X121505354Y-98699500D01*
X121505352Y-98699500D01*
X121320199Y-98738854D01*
X121199935Y-98792400D01*
X121139771Y-98802738D01*
X121081965Y-98783115D01*
X121040527Y-98738288D01*
X121025500Y-98679120D01*
X121025500Y-95374187D01*
X121033736Y-95329749D01*
X121057347Y-95291217D01*
X121132533Y-95207716D01*
X121164066Y-95153098D01*
X121202561Y-95111997D01*
X121255267Y-95092159D01*
X121311311Y-95097679D01*
X121359134Y-95127417D01*
X126615503Y-100383787D01*
X126628403Y-100399888D01*
X126679530Y-100447900D01*
X126682327Y-100450611D01*
X126701836Y-100470120D01*
X126705018Y-100472588D01*
X126713878Y-100480155D01*
X126745658Y-100509999D01*
X126745725Y-100510062D01*
X126763277Y-100519711D01*
X126779545Y-100530397D01*
X126795371Y-100542673D01*
X126835453Y-100560017D01*
X126845940Y-100565155D01*
X126884214Y-100586197D01*
X126892717Y-100588379D01*
X126903615Y-100591178D01*
X126922020Y-100597478D01*
X126940411Y-100605437D01*
X126983557Y-100612270D01*
X126994975Y-100614635D01*
X127037288Y-100625500D01*
X127057323Y-100625500D01*
X127076722Y-100627027D01*
X127096503Y-100630160D01*
X127139981Y-100626050D01*
X127151651Y-100625500D01*
X130896253Y-100625500D01*
X130946688Y-100636220D01*
X130988401Y-100666526D01*
X130994129Y-100672888D01*
X131147270Y-100784151D01*
X131147271Y-100784151D01*
X131147272Y-100784152D01*
X131320197Y-100861144D01*
X131505352Y-100900500D01*
X131505354Y-100900500D01*
X131694646Y-100900500D01*
X131694648Y-100900500D01*
X131818084Y-100874262D01*
X131879803Y-100861144D01*
X132052730Y-100784151D01*
X132205871Y-100672888D01*
X132332533Y-100532216D01*
X132427179Y-100368284D01*
X132485674Y-100188256D01*
X132505460Y-100000000D01*
X132485674Y-99811744D01*
X132427179Y-99631716D01*
X132427179Y-99631715D01*
X132332533Y-99467783D01*
X132205870Y-99327110D01*
X132052730Y-99215848D01*
X131879802Y-99138855D01*
X131694648Y-99099500D01*
X131694646Y-99099500D01*
X131505354Y-99099500D01*
X131505352Y-99099500D01*
X131320197Y-99138855D01*
X131147272Y-99215847D01*
X131081737Y-99263461D01*
X130994129Y-99327112D01*
X130988401Y-99333473D01*
X130946688Y-99363780D01*
X130896253Y-99374500D01*
X127426760Y-99374500D01*
X127379307Y-99365061D01*
X127339079Y-99338181D01*
X121530767Y-93529869D01*
X121506527Y-93495571D01*
X121495128Y-93455155D01*
X121477481Y-93287244D01*
X121418986Y-93107216D01*
X121418986Y-93107215D01*
X121324342Y-92943286D01*
X121308697Y-92925911D01*
X121238839Y-92848326D01*
X121210169Y-92793250D01*
X121211795Y-92731177D01*
X121243308Y-92677677D01*
X122734167Y-91186819D01*
X122774396Y-91159939D01*
X122821849Y-91150500D01*
X124017561Y-91150500D01*
X124038067Y-91152764D01*
X124040970Y-91152672D01*
X124040972Y-91152673D01*
X124108177Y-91150561D01*
X124112073Y-91150500D01*
X124139654Y-91150500D01*
X124139655Y-91150500D01*
X124143624Y-91149998D01*
X124155270Y-91149080D01*
X124198932Y-91147709D01*
X124218164Y-91142120D01*
X124237223Y-91138174D01*
X124243501Y-91137381D01*
X124257097Y-91135664D01*
X124297712Y-91119582D01*
X124308749Y-91115803D01*
X124350695Y-91103618D01*
X124367934Y-91093422D01*
X124385407Y-91084862D01*
X124404037Y-91077486D01*
X124439369Y-91051814D01*
X124449135Y-91045400D01*
X124486723Y-91023171D01*
X124486722Y-91023171D01*
X124486725Y-91023170D01*
X124500890Y-91009004D01*
X124515678Y-90996373D01*
X124531892Y-90984594D01*
X124559743Y-90950926D01*
X124567584Y-90942309D01*
X124908786Y-90601107D01*
X124924881Y-90588215D01*
X124926873Y-90586093D01*
X124926877Y-90586091D01*
X124972948Y-90537028D01*
X124975566Y-90534328D01*
X124995120Y-90514776D01*
X124997581Y-90511603D01*
X125005156Y-90502732D01*
X125035062Y-90470887D01*
X125044717Y-90453323D01*
X125055394Y-90437069D01*
X125067673Y-90421241D01*
X125085018Y-90381157D01*
X125090160Y-90370661D01*
X125111197Y-90332397D01*
X125116179Y-90312989D01*
X125122481Y-90294585D01*
X125130437Y-90276201D01*
X125137269Y-90233057D01*
X125139633Y-90221643D01*
X125150500Y-90179324D01*
X125150500Y-90159289D01*
X125152027Y-90139890D01*
X125152068Y-90139626D01*
X125155160Y-90120109D01*
X125151050Y-90076630D01*
X125150500Y-90064961D01*
X125150500Y-89207741D01*
X125152763Y-89187237D01*
X125151034Y-89132216D01*
X125150561Y-89117145D01*
X125150500Y-89113251D01*
X125150500Y-89085657D01*
X125150500Y-89085650D01*
X125149995Y-89081653D01*
X125149080Y-89070023D01*
X125147709Y-89026373D01*
X125142120Y-89007140D01*
X125138174Y-88988082D01*
X125135664Y-88968208D01*
X125119588Y-88927606D01*
X125115804Y-88916552D01*
X125103619Y-88874613D01*
X125103618Y-88874612D01*
X125103618Y-88874610D01*
X125093417Y-88857361D01*
X125084860Y-88839895D01*
X125077486Y-88821268D01*
X125051813Y-88785932D01*
X125045402Y-88776172D01*
X125023169Y-88738578D01*
X125009006Y-88724415D01*
X124996369Y-88709620D01*
X124984595Y-88693414D01*
X124984594Y-88693413D01*
X124950935Y-88665568D01*
X124942305Y-88657714D01*
X124696772Y-88412181D01*
X124666522Y-88362818D01*
X124661980Y-88305102D01*
X124684135Y-88251615D01*
X124728158Y-88214015D01*
X124784453Y-88200500D01*
X132875500Y-88200500D01*
X132937500Y-88217113D01*
G37*
%TD.AperFunction*%
%TA.AperFunction,Conductor*%
G36*
X118668587Y-88214015D02*
G01*
X118712610Y-88251614D01*
X118734765Y-88305102D01*
X118730223Y-88362817D01*
X118714326Y-88411740D01*
X118694540Y-88599999D01*
X118714326Y-88788257D01*
X118772820Y-88968284D01*
X118867466Y-89132216D01*
X118994129Y-89272889D01*
X119147269Y-89384151D01*
X119320197Y-89461144D01*
X119505352Y-89500500D01*
X119505354Y-89500500D01*
X119694646Y-89500500D01*
X119694648Y-89500500D01*
X119818084Y-89474262D01*
X119879803Y-89461144D01*
X120052730Y-89384151D01*
X120205871Y-89272888D01*
X120211598Y-89266526D01*
X120253312Y-89236220D01*
X120303747Y-89225500D01*
X121990547Y-89225500D01*
X122046842Y-89239015D01*
X122090865Y-89276615D01*
X122113020Y-89330102D01*
X122108478Y-89387818D01*
X122078228Y-89437181D01*
X118437181Y-93078228D01*
X118387818Y-93108478D01*
X118330102Y-93113020D01*
X118276615Y-93090865D01*
X118239015Y-93046842D01*
X118225500Y-92990547D01*
X118225500Y-91298687D01*
X118233736Y-91254249D01*
X118257347Y-91215717D01*
X118332533Y-91132216D01*
X118332536Y-91132212D01*
X118427179Y-90968284D01*
X118432814Y-90950942D01*
X118485674Y-90788256D01*
X118505460Y-90600000D01*
X118485674Y-90411744D01*
X118436824Y-90261400D01*
X118427179Y-90231715D01*
X118332533Y-90067783D01*
X118205870Y-89927110D01*
X118052730Y-89815848D01*
X117879802Y-89738855D01*
X117694648Y-89699500D01*
X117694646Y-89699500D01*
X117505354Y-89699500D01*
X117505352Y-89699500D01*
X117320197Y-89738855D01*
X117147269Y-89815848D01*
X116994129Y-89927110D01*
X116867466Y-90067784D01*
X116781886Y-90216013D01*
X116736499Y-90261400D01*
X116674499Y-90278013D01*
X116612499Y-90261400D01*
X116567112Y-90216013D01*
X116550499Y-90154013D01*
X116550499Y-89702130D01*
X116550216Y-89699500D01*
X116544091Y-89642517D01*
X116493796Y-89507669D01*
X116407546Y-89392454D01*
X116292331Y-89306204D01*
X116157483Y-89255909D01*
X116097873Y-89249500D01*
X116097869Y-89249500D01*
X114302130Y-89249500D01*
X114242515Y-89255909D01*
X114107669Y-89306204D01*
X113992454Y-89392454D01*
X113906204Y-89507668D01*
X113855909Y-89642515D01*
X113855909Y-89642517D01*
X113849783Y-89699500D01*
X113849500Y-89702130D01*
X113849500Y-91497869D01*
X113855909Y-91557483D01*
X113906204Y-91692331D01*
X113992454Y-91807546D01*
X114107669Y-91893796D01*
X114239598Y-91943002D01*
X114289978Y-91977981D01*
X114317431Y-92032825D01*
X114315242Y-92094118D01*
X114283947Y-92146865D01*
X114161888Y-92268924D01*
X114026400Y-92462421D01*
X113926569Y-92676507D01*
X113869364Y-92889999D01*
X113869364Y-92890000D01*
X116530636Y-92890000D01*
X116530635Y-92889999D01*
X116473430Y-92676507D01*
X116373599Y-92462421D01*
X116238109Y-92268921D01*
X116116053Y-92146865D01*
X116084757Y-92094119D01*
X116082568Y-92032826D01*
X116110021Y-91977981D01*
X116160398Y-91943003D01*
X116292331Y-91893796D01*
X116407546Y-91807546D01*
X116493796Y-91692331D01*
X116544091Y-91557483D01*
X116550500Y-91497873D01*
X116550499Y-91045984D01*
X116567112Y-90983987D01*
X116612499Y-90938600D01*
X116674499Y-90921987D01*
X116736499Y-90938600D01*
X116781886Y-90983987D01*
X116867464Y-91132212D01*
X116867465Y-91132213D01*
X116867467Y-91132216D01*
X116942652Y-91215717D01*
X116966264Y-91254249D01*
X116974500Y-91298687D01*
X116974500Y-93755500D01*
X116957887Y-93817500D01*
X116912500Y-93862887D01*
X116850500Y-93879500D01*
X116539367Y-93879500D01*
X116479724Y-93864214D01*
X116434786Y-93822125D01*
X116415632Y-93763610D01*
X116426985Y-93703095D01*
X116473430Y-93603492D01*
X116530636Y-93390000D01*
X113869364Y-93390000D01*
X113926569Y-93603492D01*
X114026399Y-93817576D01*
X114168113Y-94019964D01*
X114165134Y-94022049D01*
X114186672Y-94059353D01*
X114186672Y-94123541D01*
X114154578Y-94179128D01*
X113641208Y-94692498D01*
X113625110Y-94705395D01*
X113577096Y-94756524D01*
X113574391Y-94759316D01*
X113554874Y-94778833D01*
X113552415Y-94782004D01*
X113544842Y-94790871D01*
X113514935Y-94822719D01*
X113505285Y-94840273D01*
X113494609Y-94856527D01*
X113482326Y-94872362D01*
X113464975Y-94912457D01*
X113459838Y-94922943D01*
X113433163Y-94971466D01*
X113388292Y-95018063D01*
X113326059Y-95035720D01*
X113263402Y-95019633D01*
X113217374Y-94974180D01*
X113200500Y-94911730D01*
X113200500Y-88324500D01*
X113217113Y-88262500D01*
X113262500Y-88217113D01*
X113324500Y-88200500D01*
X118612292Y-88200500D01*
X118668587Y-88214015D01*
G37*
%TD.AperFunction*%
%TD*%
M02*
