%TF.GenerationSoftware,KiCad,Pcbnew,7.0.1-0*%
%TF.CreationDate,2023-04-25T00:20:10+03:00*%
%TF.ProjectId,power switch with delay,706f7765-7220-4737-9769-746368207769,rev?*%
%TF.SameCoordinates,Original*%
%TF.FileFunction,Copper,L1,Top*%
%TF.FilePolarity,Positive*%
%FSLAX46Y46*%
G04 Gerber Fmt 4.6, Leading zero omitted, Abs format (unit mm)*
G04 Created by KiCad (PCBNEW 7.0.1-0) date 2023-04-25 00:20:10*
%MOMM*%
%LPD*%
G01*
G04 APERTURE LIST*
G04 Aperture macros list*
%AMRoundRect*
0 Rectangle with rounded corners*
0 $1 Rounding radius*
0 $2 $3 $4 $5 $6 $7 $8 $9 X,Y pos of 4 corners*
0 Add a 4 corners polygon primitive as box body*
4,1,4,$2,$3,$4,$5,$6,$7,$8,$9,$2,$3,0*
0 Add four circle primitives for the rounded corners*
1,1,$1+$1,$2,$3*
1,1,$1+$1,$4,$5*
1,1,$1+$1,$6,$7*
1,1,$1+$1,$8,$9*
0 Add four rect primitives between the rounded corners*
20,1,$1+$1,$2,$3,$4,$5,0*
20,1,$1+$1,$4,$5,$6,$7,0*
20,1,$1+$1,$6,$7,$8,$9,0*
20,1,$1+$1,$8,$9,$2,$3,0*%
%AMFreePoly0*
4,1,19,0.550000,-0.750000,0.000000,-0.750000,0.000000,-0.744911,-0.071157,-0.744911,-0.207708,-0.704816,-0.327430,-0.627875,-0.420627,-0.520320,-0.479746,-0.390866,-0.500000,-0.250000,-0.500000,0.250000,-0.479746,0.390866,-0.420627,0.520320,-0.327430,0.627875,-0.207708,0.704816,-0.071157,0.744911,0.000000,0.744911,0.000000,0.750000,0.550000,0.750000,0.550000,-0.750000,0.550000,-0.750000,
$1*%
%AMFreePoly1*
4,1,19,0.000000,0.744911,0.071157,0.744911,0.207708,0.704816,0.327430,0.627875,0.420627,0.520320,0.479746,0.390866,0.500000,0.250000,0.500000,-0.250000,0.479746,-0.390866,0.420627,-0.520320,0.327430,-0.627875,0.207708,-0.704816,0.071157,-0.744911,0.000000,-0.744911,0.000000,-0.750000,-0.550000,-0.750000,-0.550000,0.750000,0.000000,0.750000,0.000000,0.744911,0.000000,0.744911,
$1*%
G04 Aperture macros list end*
%TA.AperFunction,SMDPad,CuDef*%
%ADD10RoundRect,0.250000X0.450000X-0.262500X0.450000X0.262500X-0.450000X0.262500X-0.450000X-0.262500X0*%
%TD*%
%TA.AperFunction,SMDPad,CuDef*%
%ADD11R,1.500000X0.650000*%
%TD*%
%TA.AperFunction,SMDPad,CuDef*%
%ADD12R,1.350000X1.800000*%
%TD*%
%TA.AperFunction,SMDPad,CuDef*%
%ADD13FreePoly0,0.000000*%
%TD*%
%TA.AperFunction,SMDPad,CuDef*%
%ADD14R,1.000000X1.500000*%
%TD*%
%TA.AperFunction,SMDPad,CuDef*%
%ADD15FreePoly1,0.000000*%
%TD*%
%TA.AperFunction,ComponentPad*%
%ADD16R,1.700000X1.700000*%
%TD*%
%TA.AperFunction,ComponentPad*%
%ADD17O,1.700000X1.700000*%
%TD*%
%TA.AperFunction,SMDPad,CuDef*%
%ADD18RoundRect,0.243750X0.243750X0.456250X-0.243750X0.456250X-0.243750X-0.456250X0.243750X-0.456250X0*%
%TD*%
%TA.AperFunction,SMDPad,CuDef*%
%ADD19RoundRect,0.150000X0.587500X0.150000X-0.587500X0.150000X-0.587500X-0.150000X0.587500X-0.150000X0*%
%TD*%
%TA.AperFunction,SMDPad,CuDef*%
%ADD20RoundRect,0.250000X-0.400000X-0.275000X0.400000X-0.275000X0.400000X0.275000X-0.400000X0.275000X0*%
%TD*%
%TA.AperFunction,ViaPad*%
%ADD21C,0.800000*%
%TD*%
%TA.AperFunction,Conductor*%
%ADD22C,0.250000*%
%TD*%
G04 APERTURE END LIST*
D10*
%TO.P,R5,2*%
%TO.N,Net-(D1-K-Pad1)*%
X129800000Y-97000000D03*
%TO.P,R5,1*%
%TO.N,OUT+*%
X129800000Y-98825000D03*
%TD*%
%TO.P,R4,1*%
%TO.N,Net-(C3-Pad2)*%
X131600000Y-98912500D03*
%TO.P,R4,2*%
%TO.N,Net-(D1-K-Pad1)*%
X131600000Y-97087500D03*
%TD*%
%TO.P,R3,1*%
%TO.N,Net-(D2-A)*%
X123000000Y-102112500D03*
%TO.P,R3,2*%
%TO.N,OUT+*%
X123000000Y-100287500D03*
%TD*%
%TO.P,R2,2*%
%TO.N,Net-(C1-Pad2)*%
X118912500Y-92375000D03*
%TO.P,R2,1*%
%TO.N,VCC*%
X118912500Y-94200000D03*
%TD*%
%TO.P,R1,2*%
%TO.N,VCC*%
X119000000Y-96487500D03*
%TO.P,R1,1*%
%TO.N,BUT*%
X119000000Y-98312500D03*
%TD*%
D11*
%TO.P,Q1,1*%
%TO.N,Net-(C1-Pad2)*%
X121900000Y-92495000D03*
%TO.P,Q1,2*%
%TO.N,Net-(C3-Pad2)*%
X121900000Y-93765000D03*
%TO.P,Q1,3*%
%TO.N,VCC*%
X121900000Y-95035000D03*
%TO.P,Q1,4*%
%TO.N,Net-(C1-Pad2)*%
X121900000Y-96305000D03*
%TO.P,Q1,5*%
%TO.N,OUT+*%
X127300000Y-96305000D03*
%TO.P,Q1,6*%
X127300000Y-95035000D03*
%TO.P,Q1,7*%
%TO.N,GND*%
X127300000Y-93765000D03*
%TO.P,Q1,8*%
X127300000Y-92495000D03*
D12*
%TO.P,Q1,9*%
%TO.N,N/C*%
X125275000Y-93500000D03*
X125275000Y-95300000D03*
X123925000Y-93500000D03*
X123925000Y-95300000D03*
%TD*%
D13*
%TO.P,JP1,1,A*%
%TO.N,GND*%
X118100000Y-101400000D03*
D14*
%TO.P,JP1,2,C*%
%TO.N,Net-(JP1-C)*%
X119400000Y-101400000D03*
D15*
%TO.P,JP1,3,B*%
%TO.N,VCC*%
X120700000Y-101400000D03*
%TD*%
D16*
%TO.P,J1,1,Pin_1*%
%TO.N,OUT+*%
X115200000Y-90600000D03*
D17*
%TO.P,J1,2,Pin_2*%
%TO.N,GND*%
X115200000Y-93140000D03*
%TO.P,J1,3,Pin_3*%
%TO.N,BUT*%
X115200000Y-95680000D03*
%TO.P,J1,4,Pin_4*%
%TO.N,VCC*%
X115200000Y-98220000D03*
%TO.P,J1,5,Pin_5*%
%TO.N,GND*%
X115200000Y-100760000D03*
%TD*%
D18*
%TO.P,D2,1,K*%
%TO.N,GND*%
X127137500Y-101200000D03*
%TO.P,D2,2,A*%
%TO.N,Net-(D2-A)*%
X125262500Y-101200000D03*
%TD*%
D19*
%TO.P,D1,3,K*%
%TO.N,unconnected-(D1-K-Pad3)*%
X129662500Y-94000000D03*
%TO.P,D1,2,A*%
%TO.N,BUT*%
X131537500Y-93050000D03*
%TO.P,D1,1,K*%
%TO.N,Net-(D1-K-Pad1)*%
X131537500Y-94950000D03*
%TD*%
D20*
%TO.P,C3,1*%
%TO.N,OUT+*%
X129425000Y-101600000D03*
%TO.P,C3,2*%
%TO.N,Net-(C3-Pad2)*%
X131375000Y-101600000D03*
%TD*%
%TO.P,C2,2*%
%TO.N,Net-(C1-Pad2)*%
X121550000Y-89800000D03*
%TO.P,C2,1*%
%TO.N,Net-(JP1-C)*%
X119600000Y-89800000D03*
%TD*%
%TO.P,C1,2*%
%TO.N,Net-(C1-Pad2)*%
X127150000Y-89800000D03*
%TO.P,C1,1*%
%TO.N,BUT*%
X125200000Y-89800000D03*
%TD*%
D21*
%TO.N,Net-(C3-Pad2)*%
X131600000Y-100000000D03*
X120591807Y-93475500D03*
%TO.N,OUT+*%
X121600000Y-99600000D03*
X117600000Y-90600000D03*
%TO.N,Net-(JP1-C)*%
X119600000Y-88600000D03*
X117600000Y-99275500D03*
%TO.N,VCC*%
X120400000Y-94675500D03*
X120600000Y-100000000D03*
%TO.N,BUT*%
X123800000Y-89800000D03*
X116800000Y-95600000D03*
%TD*%
D22*
%TO.N,Net-(C3-Pad2)*%
X131375000Y-101600000D02*
X131375000Y-100225000D01*
X131375000Y-100225000D02*
X131600000Y-100000000D01*
X131600000Y-98912500D02*
X131600000Y-100000000D01*
X120881307Y-93765000D02*
X120591807Y-93475500D01*
X121900000Y-93765000D02*
X120881307Y-93765000D01*
%TO.N,OUT+*%
X115200000Y-90600000D02*
X117600000Y-90600000D01*
X121600000Y-99600000D02*
X122312500Y-99600000D01*
X122312500Y-99600000D02*
X123000000Y-100287500D01*
X129425000Y-101600000D02*
X129600000Y-101425000D01*
X129600000Y-101425000D02*
X129600000Y-99025000D01*
%TO.N,Net-(D1-K-Pad1)*%
X129600000Y-97200000D02*
X131487500Y-97200000D01*
X131487500Y-97200000D02*
X131600000Y-97087500D01*
X131537500Y-94950000D02*
X131537500Y-97025000D01*
X131537500Y-97025000D02*
X131600000Y-97087500D01*
%TO.N,Net-(D2-A)*%
X124350000Y-102112500D02*
X125262500Y-101200000D01*
X123000000Y-102112500D02*
X124350000Y-102112500D01*
%TO.N,OUT+*%
X127300000Y-96305000D02*
X127300000Y-97587500D01*
X127300000Y-97587500D02*
X124600000Y-100287500D01*
X124600000Y-100287500D02*
X123000000Y-100287500D01*
%TO.N,BUT*%
X131537500Y-93050000D02*
X129137500Y-90650000D01*
X129137500Y-90650000D02*
X126050000Y-90650000D01*
X126050000Y-90650000D02*
X125200000Y-89800000D01*
%TO.N,OUT+*%
X127300000Y-96305000D02*
X127480000Y-96305000D01*
X127640000Y-96305000D02*
X130360000Y-99025000D01*
X127300000Y-95035000D02*
X127300000Y-96305000D01*
%TO.N,Net-(C3-Pad2)*%
X121900000Y-93765000D02*
X121900000Y-93810498D01*
%TO.N,Net-(JP1-C)*%
X119400000Y-101400000D02*
X119400000Y-100400000D01*
X118275500Y-99275500D02*
X117600000Y-99275500D01*
X119400000Y-100400000D02*
X118275500Y-99275500D01*
X119600000Y-88600000D02*
X119600000Y-89800000D01*
%TO.N,VCC*%
X118912500Y-94200000D02*
X119924500Y-94200000D01*
X120600000Y-100000000D02*
X120600000Y-101300000D01*
X119924500Y-94200000D02*
X120400000Y-94675500D01*
X120600000Y-101300000D02*
X120700000Y-101400000D01*
X121900000Y-95035000D02*
X121475000Y-95035000D01*
X121475000Y-95035000D02*
X120640000Y-94200000D01*
X120640000Y-94200000D02*
X118912500Y-94200000D01*
%TO.N,Net-(C1-Pad2)*%
X117400000Y-95000000D02*
X117400000Y-92800000D01*
X121900000Y-96305000D02*
X121475000Y-96305000D01*
X120570000Y-95400000D02*
X117800000Y-95400000D01*
X117800000Y-95400000D02*
X117400000Y-95000000D01*
X117400000Y-92800000D02*
X117825000Y-92375000D01*
X117825000Y-92375000D02*
X118912500Y-92375000D01*
X121475000Y-96305000D02*
X120570000Y-95400000D01*
X118912500Y-92375000D02*
X119032500Y-92495000D01*
X119032500Y-92495000D02*
X121900000Y-92495000D01*
X121550000Y-89800000D02*
X121487500Y-89800000D01*
X121487500Y-89800000D02*
X118912500Y-92375000D01*
X127150000Y-89800000D02*
X126300000Y-88950000D01*
X126300000Y-88950000D02*
X122400000Y-88950000D01*
X122400000Y-88950000D02*
X121550000Y-89800000D01*
%TO.N,BUT*%
X115200000Y-95680000D02*
X116720000Y-95680000D01*
X116720000Y-95680000D02*
X116800000Y-95600000D01*
X123800000Y-89800000D02*
X125200000Y-89800000D01*
X115200000Y-95680000D02*
X117832500Y-98312500D01*
X117832500Y-98312500D02*
X119000000Y-98312500D01*
%TD*%
%TA.AperFunction,Conductor*%
%TO.N,GND*%
G36*
X118668587Y-88214015D02*
G01*
X118712610Y-88251614D01*
X118734765Y-88305102D01*
X118730223Y-88362817D01*
X118714326Y-88411740D01*
X118694540Y-88599999D01*
X118714326Y-88788257D01*
X118730340Y-88837541D01*
X118732983Y-88904806D01*
X118700091Y-88963540D01*
X118607287Y-89056344D01*
X118515186Y-89205665D01*
X118460000Y-89372202D01*
X118449500Y-89474992D01*
X118449500Y-89874658D01*
X118435389Y-89932107D01*
X118396269Y-89976480D01*
X118341041Y-89997680D01*
X118282277Y-89990881D01*
X118233350Y-89957630D01*
X118205870Y-89927110D01*
X118052730Y-89815848D01*
X117879802Y-89738855D01*
X117694648Y-89699500D01*
X117694646Y-89699500D01*
X117505354Y-89699500D01*
X117505352Y-89699500D01*
X117320197Y-89738855D01*
X117147272Y-89815847D01*
X117066326Y-89874658D01*
X116994129Y-89927112D01*
X116988401Y-89933473D01*
X116946688Y-89963780D01*
X116896253Y-89974500D01*
X116674499Y-89974500D01*
X116612499Y-89957887D01*
X116567112Y-89912500D01*
X116550499Y-89850500D01*
X116550499Y-89702130D01*
X116550216Y-89699500D01*
X116544091Y-89642517D01*
X116493796Y-89507669D01*
X116407546Y-89392454D01*
X116292331Y-89306204D01*
X116157483Y-89255909D01*
X116097873Y-89249500D01*
X116097869Y-89249500D01*
X114302130Y-89249500D01*
X114242515Y-89255909D01*
X114107669Y-89306204D01*
X113992454Y-89392454D01*
X113906204Y-89507668D01*
X113855909Y-89642515D01*
X113855909Y-89642517D01*
X113849783Y-89699500D01*
X113849500Y-89702130D01*
X113849500Y-91497869D01*
X113852379Y-91524645D01*
X113855909Y-91557483D01*
X113906204Y-91692331D01*
X113992454Y-91807546D01*
X114107669Y-91893796D01*
X114239598Y-91943002D01*
X114289978Y-91977981D01*
X114317431Y-92032825D01*
X114315242Y-92094118D01*
X114283947Y-92146865D01*
X114161888Y-92268924D01*
X114026400Y-92462421D01*
X113926569Y-92676507D01*
X113869364Y-92889999D01*
X113869364Y-92890000D01*
X115326000Y-92890000D01*
X115388000Y-92906613D01*
X115433387Y-92952000D01*
X115450000Y-93014000D01*
X115450000Y-93266000D01*
X115433387Y-93328000D01*
X115388000Y-93373387D01*
X115326000Y-93390000D01*
X113869364Y-93390000D01*
X113926569Y-93603492D01*
X114026399Y-93817576D01*
X114161893Y-94011081D01*
X114328918Y-94178106D01*
X114514595Y-94308119D01*
X114553460Y-94352437D01*
X114567471Y-94409694D01*
X114553460Y-94466951D01*
X114514595Y-94511269D01*
X114328595Y-94641508D01*
X114161505Y-94808598D01*
X114025965Y-95002170D01*
X113926097Y-95216336D01*
X113864936Y-95444592D01*
X113844340Y-95680000D01*
X113864936Y-95915407D01*
X113894540Y-96025891D01*
X113926097Y-96143663D01*
X114025965Y-96357830D01*
X114161505Y-96551401D01*
X114328599Y-96718495D01*
X114514160Y-96848426D01*
X114553024Y-96892743D01*
X114567035Y-96950000D01*
X114553024Y-97007257D01*
X114514158Y-97051575D01*
X114401444Y-97130499D01*
X114328595Y-97181508D01*
X114161505Y-97348598D01*
X114025965Y-97542170D01*
X113926097Y-97756336D01*
X113864936Y-97984592D01*
X113844340Y-98220000D01*
X113864936Y-98455407D01*
X113903678Y-98599992D01*
X113926097Y-98683663D01*
X114025965Y-98897830D01*
X114161505Y-99091401D01*
X114328599Y-99258495D01*
X114514597Y-99388732D01*
X114553460Y-99433048D01*
X114567471Y-99490305D01*
X114553461Y-99547561D01*
X114514595Y-99591880D01*
X114328919Y-99721892D01*
X114161890Y-99888921D01*
X114026400Y-100082421D01*
X113926569Y-100296507D01*
X113869364Y-100509999D01*
X113869364Y-100510000D01*
X116530636Y-100510000D01*
X116530635Y-100509999D01*
X116473430Y-100296507D01*
X116373599Y-100082421D01*
X116238109Y-99888921D01*
X116071081Y-99721893D01*
X115885404Y-99591880D01*
X115846539Y-99547562D01*
X115832528Y-99490305D01*
X115846539Y-99433048D01*
X115885402Y-99388732D01*
X116071401Y-99258495D01*
X116238495Y-99091401D01*
X116374035Y-98897830D01*
X116473903Y-98683663D01*
X116535063Y-98455408D01*
X116549146Y-98294444D01*
X116556598Y-98209272D01*
X116581750Y-98144592D01*
X116637716Y-98103557D01*
X116706965Y-98099018D01*
X116767807Y-98132398D01*
X117032728Y-98397319D01*
X117061383Y-98442081D01*
X117068665Y-98494728D01*
X117053237Y-98545588D01*
X117017933Y-98585317D01*
X116994133Y-98602608D01*
X116994130Y-98602611D01*
X116994129Y-98602612D01*
X116973963Y-98625009D01*
X116867464Y-98743286D01*
X116772820Y-98907215D01*
X116714326Y-99087242D01*
X116694540Y-99275500D01*
X116714326Y-99463757D01*
X116772820Y-99643784D01*
X116867466Y-99807716D01*
X116994129Y-99948389D01*
X117147269Y-100059651D01*
X117320197Y-100136644D01*
X117505352Y-100176000D01*
X117505354Y-100176000D01*
X117694646Y-100176000D01*
X117694648Y-100176000D01*
X117818084Y-100149762D01*
X117879803Y-100136644D01*
X118052730Y-100059651D01*
X118052731Y-100059650D01*
X118059519Y-100056628D01*
X118107790Y-100045926D01*
X118156406Y-100054936D01*
X118197636Y-100082226D01*
X118418021Y-100302612D01*
X118451506Y-100363935D01*
X118446522Y-100433626D01*
X118405909Y-100542514D01*
X118399500Y-100602130D01*
X118399500Y-102197869D01*
X118402045Y-102221540D01*
X118405909Y-102257483D01*
X118456204Y-102392331D01*
X118542454Y-102507546D01*
X118657669Y-102593796D01*
X118792517Y-102644091D01*
X118852127Y-102650500D01*
X119947872Y-102650499D01*
X120007483Y-102644091D01*
X120007486Y-102644089D01*
X120022879Y-102642435D01*
X120052313Y-102642785D01*
X120150000Y-102655647D01*
X120771888Y-102655647D01*
X120771889Y-102655647D01*
X120914345Y-102635165D01*
X121052300Y-102594658D01*
X121183216Y-102534871D01*
X121304170Y-102457139D01*
X121361927Y-102413903D01*
X121412943Y-102362887D01*
X121507097Y-102254226D01*
X121571185Y-102154501D01*
X121617632Y-102111872D01*
X121679040Y-102097592D01*
X121739533Y-102115353D01*
X121783472Y-102160565D01*
X121799500Y-102221540D01*
X121799500Y-102425008D01*
X121810000Y-102527796D01*
X121865186Y-102694334D01*
X121957288Y-102843657D01*
X122081342Y-102967711D01*
X122081344Y-102967712D01*
X122230666Y-103059814D01*
X122342017Y-103096712D01*
X122397202Y-103114999D01*
X122407703Y-103116071D01*
X122499991Y-103125500D01*
X123500008Y-103125499D01*
X123602797Y-103114999D01*
X123769334Y-103059814D01*
X123918656Y-102967712D01*
X124042712Y-102843656D01*
X124071548Y-102796904D01*
X124116656Y-102753723D01*
X124177088Y-102738000D01*
X124267256Y-102738000D01*
X124287762Y-102740264D01*
X124290665Y-102740172D01*
X124290667Y-102740173D01*
X124357872Y-102738061D01*
X124361768Y-102738000D01*
X124389349Y-102738000D01*
X124389350Y-102738000D01*
X124393319Y-102737498D01*
X124404965Y-102736580D01*
X124448627Y-102735209D01*
X124467859Y-102729620D01*
X124486918Y-102725674D01*
X124493196Y-102724881D01*
X124506792Y-102723164D01*
X124547407Y-102707082D01*
X124558444Y-102703303D01*
X124600390Y-102691118D01*
X124617629Y-102680922D01*
X124635102Y-102672362D01*
X124653732Y-102664986D01*
X124689064Y-102639314D01*
X124698830Y-102632900D01*
X124736418Y-102610671D01*
X124736417Y-102610671D01*
X124736420Y-102610670D01*
X124750585Y-102596504D01*
X124765373Y-102583873D01*
X124781587Y-102572094D01*
X124809438Y-102538426D01*
X124817269Y-102529819D01*
X124910273Y-102436815D01*
X124950499Y-102409939D01*
X124997951Y-102400500D01*
X125555848Y-102400500D01*
X125657775Y-102390087D01*
X125657775Y-102390086D01*
X125822925Y-102335362D01*
X125971003Y-102244026D01*
X126094026Y-102121003D01*
X126185362Y-101972925D01*
X126240087Y-101807775D01*
X126250500Y-101705848D01*
X126250500Y-100694152D01*
X126240087Y-100592225D01*
X126237693Y-100585001D01*
X126212724Y-100509650D01*
X126185362Y-100427075D01*
X126094026Y-100278997D01*
X126094025Y-100278996D01*
X126094024Y-100278994D01*
X125971004Y-100155974D01*
X125884978Y-100102912D01*
X125845495Y-100063999D01*
X125826914Y-100011769D01*
X125832950Y-99956663D01*
X125862393Y-99909695D01*
X127683786Y-98088302D01*
X127699887Y-98075404D01*
X127701874Y-98073287D01*
X127701877Y-98073286D01*
X127747932Y-98024241D01*
X127750613Y-98021476D01*
X127770120Y-98001970D01*
X127772581Y-97998795D01*
X127780152Y-97989931D01*
X127810062Y-97958082D01*
X127819713Y-97940526D01*
X127830393Y-97924267D01*
X127842674Y-97908436D01*
X127860018Y-97868351D01*
X127865160Y-97857856D01*
X127886197Y-97819592D01*
X127891178Y-97800188D01*
X127897480Y-97781783D01*
X127905438Y-97763395D01*
X127909529Y-97737557D01*
X127937712Y-97676425D01*
X127993684Y-97639024D01*
X128060950Y-97636381D01*
X128119684Y-97669274D01*
X128618169Y-98167759D01*
X128651146Y-98226844D01*
X128648194Y-98294444D01*
X128610000Y-98409702D01*
X128599500Y-98512491D01*
X128599500Y-99137508D01*
X128610000Y-99240296D01*
X128665186Y-99406834D01*
X128757288Y-99556157D01*
X128881342Y-99680211D01*
X128915596Y-99701339D01*
X128958777Y-99746446D01*
X128974500Y-99806878D01*
X128974500Y-100462573D01*
X128959927Y-100520897D01*
X128919634Y-100565513D01*
X128884283Y-100578279D01*
X128885095Y-100580729D01*
X128705665Y-100640186D01*
X128556342Y-100732288D01*
X128432288Y-100856342D01*
X128340186Y-101005665D01*
X128285000Y-101172202D01*
X128274500Y-101274991D01*
X128274500Y-101925008D01*
X128285000Y-102027796D01*
X128340186Y-102194334D01*
X128432288Y-102343657D01*
X128556342Y-102467711D01*
X128612895Y-102502592D01*
X128705666Y-102559814D01*
X128808214Y-102593795D01*
X128872202Y-102614999D01*
X128882703Y-102616071D01*
X128974991Y-102625500D01*
X129875008Y-102625499D01*
X129977797Y-102614999D01*
X130144334Y-102559814D01*
X130293656Y-102467712D01*
X130312319Y-102449048D01*
X130367906Y-102416955D01*
X130432094Y-102416955D01*
X130487680Y-102449048D01*
X130506344Y-102467712D01*
X130655666Y-102559814D01*
X130758214Y-102593795D01*
X130822202Y-102614999D01*
X130832703Y-102616071D01*
X130924991Y-102625500D01*
X131825008Y-102625499D01*
X131927797Y-102614999D01*
X132094334Y-102559814D01*
X132243656Y-102467712D01*
X132367712Y-102343656D01*
X132459814Y-102194334D01*
X132514999Y-102027797D01*
X132525500Y-101925009D01*
X132525499Y-101274992D01*
X132517838Y-101200000D01*
X132514999Y-101172203D01*
X132484481Y-101080107D01*
X132459814Y-101005666D01*
X132367712Y-100856344D01*
X132367711Y-100856342D01*
X132278837Y-100767468D01*
X132247322Y-100713966D01*
X132245696Y-100651893D01*
X132274368Y-100596815D01*
X132332533Y-100532216D01*
X132427179Y-100368284D01*
X132456569Y-100277831D01*
X132485674Y-100188256D01*
X132505460Y-100000000D01*
X132490804Y-99860560D01*
X132497238Y-99806212D01*
X132526440Y-99759927D01*
X132642712Y-99643656D01*
X132734814Y-99494334D01*
X132757794Y-99424984D01*
X132796906Y-99368078D01*
X132860389Y-99340913D01*
X132928558Y-99351914D01*
X132980274Y-99397668D01*
X132999500Y-99463989D01*
X132999500Y-103675500D01*
X132982887Y-103737500D01*
X132937500Y-103782887D01*
X132875500Y-103799500D01*
X113324500Y-103799500D01*
X113262500Y-103782887D01*
X113217113Y-103737500D01*
X113200500Y-103675500D01*
X113200500Y-101010000D01*
X113869364Y-101010000D01*
X113926569Y-101223492D01*
X114026399Y-101437576D01*
X114161893Y-101631081D01*
X114328918Y-101798106D01*
X114522423Y-101933600D01*
X114736507Y-102033430D01*
X114949999Y-102090635D01*
X114950000Y-102090636D01*
X114950000Y-101010000D01*
X115450000Y-101010000D01*
X115450000Y-102090635D01*
X115663492Y-102033430D01*
X115877576Y-101933600D01*
X116071081Y-101798106D01*
X116238106Y-101631081D01*
X116373600Y-101437576D01*
X116473430Y-101223492D01*
X116530636Y-101010000D01*
X115450000Y-101010000D01*
X114950000Y-101010000D01*
X113869364Y-101010000D01*
X113200500Y-101010000D01*
X113200500Y-88324500D01*
X113217113Y-88262500D01*
X113262500Y-88217113D01*
X113324500Y-88200500D01*
X118612292Y-88200500D01*
X118668587Y-88214015D01*
G37*
%TD.AperFunction*%
%TA.AperFunction,Conductor*%
G36*
X122903538Y-90017526D02*
G01*
X122942430Y-90074752D01*
X122972821Y-90168285D01*
X123067466Y-90332216D01*
X123194129Y-90472889D01*
X123347269Y-90584151D01*
X123520197Y-90661144D01*
X123705352Y-90700500D01*
X123705354Y-90700500D01*
X123894646Y-90700500D01*
X123894648Y-90700500D01*
X124079800Y-90661145D01*
X124079801Y-90661144D01*
X124079803Y-90661144D01*
X124171452Y-90620338D01*
X124219722Y-90609637D01*
X124268338Y-90618647D01*
X124309568Y-90645937D01*
X124331342Y-90667711D01*
X124331344Y-90667712D01*
X124480666Y-90759814D01*
X124592016Y-90796712D01*
X124647202Y-90814999D01*
X124656729Y-90815972D01*
X124749991Y-90825500D01*
X125289547Y-90825499D01*
X125337000Y-90834938D01*
X125377228Y-90861818D01*
X125549197Y-91033787D01*
X125562098Y-91049889D01*
X125564212Y-91051874D01*
X125564214Y-91051877D01*
X125611561Y-91096339D01*
X125613240Y-91097916D01*
X125616035Y-91100625D01*
X125635530Y-91120120D01*
X125638704Y-91122582D01*
X125647568Y-91130153D01*
X125679418Y-91160062D01*
X125689914Y-91165832D01*
X125696974Y-91169714D01*
X125713231Y-91180392D01*
X125729064Y-91192674D01*
X125745185Y-91199649D01*
X125769156Y-91210023D01*
X125779643Y-91215160D01*
X125817908Y-91236197D01*
X125837316Y-91241180D01*
X125855710Y-91247478D01*
X125874105Y-91255438D01*
X125917254Y-91262271D01*
X125928680Y-91264638D01*
X125935487Y-91266386D01*
X125970980Y-91275500D01*
X125970981Y-91275500D01*
X125991016Y-91275500D01*
X126010413Y-91277026D01*
X126030196Y-91280160D01*
X126073674Y-91276050D01*
X126085344Y-91275500D01*
X128827048Y-91275500D01*
X128874501Y-91284939D01*
X128914729Y-91311819D01*
X130272595Y-92669685D01*
X130305018Y-92726526D01*
X130303992Y-92791955D01*
X130302402Y-92797426D01*
X130299500Y-92834309D01*
X130299500Y-93075500D01*
X130282887Y-93137500D01*
X130237500Y-93182887D01*
X130175500Y-93199500D01*
X129009306Y-93199500D01*
X128997014Y-93200467D01*
X128972427Y-93202402D01*
X128814602Y-93248255D01*
X128673134Y-93331919D01*
X128556919Y-93448134D01*
X128473255Y-93589602D01*
X128427402Y-93747427D01*
X128424500Y-93784308D01*
X128424500Y-94136907D01*
X128410376Y-94194382D01*
X128371220Y-94238763D01*
X128315953Y-94259940D01*
X128257168Y-94253089D01*
X128157483Y-94215909D01*
X128097873Y-94209500D01*
X128097869Y-94209500D01*
X128097784Y-94209500D01*
X126574498Y-94209500D01*
X126512499Y-94192888D01*
X126467112Y-94147501D01*
X126450499Y-94085501D01*
X126450499Y-92552130D01*
X126448082Y-92529644D01*
X126444091Y-92492517D01*
X126393796Y-92357669D01*
X126307546Y-92242454D01*
X126192331Y-92156204D01*
X126057483Y-92105909D01*
X125997873Y-92099500D01*
X124647881Y-92099500D01*
X124647873Y-92099500D01*
X123243980Y-92099500D01*
X123195167Y-92089488D01*
X123154237Y-92061070D01*
X123127798Y-92018834D01*
X123112561Y-91977981D01*
X123093796Y-91927669D01*
X123007546Y-91812454D01*
X122892331Y-91726204D01*
X122757483Y-91675909D01*
X122697873Y-91669500D01*
X122697869Y-91669500D01*
X121102130Y-91669500D01*
X121042515Y-91675909D01*
X120907669Y-91726204D01*
X120799012Y-91807545D01*
X120792454Y-91812454D01*
X120786946Y-91819811D01*
X120743185Y-91856384D01*
X120687680Y-91869500D01*
X120601952Y-91869500D01*
X120545657Y-91855985D01*
X120501634Y-91818385D01*
X120479479Y-91764898D01*
X120484021Y-91707182D01*
X120514271Y-91657819D01*
X121310272Y-90861818D01*
X121350500Y-90834938D01*
X121397953Y-90825499D01*
X122000009Y-90825499D01*
X122051402Y-90820249D01*
X122102797Y-90814999D01*
X122269334Y-90759814D01*
X122418656Y-90667712D01*
X122542712Y-90543656D01*
X122634814Y-90394334D01*
X122689999Y-90227797D01*
X122700500Y-90125009D01*
X122700499Y-90113074D01*
X122719799Y-90046633D01*
X122771698Y-90000874D01*
X122840037Y-89990048D01*
X122903538Y-90017526D01*
G37*
%TD.AperFunction*%
%TD*%
M02*
